<svg xmlns="http://www.w3.org/2000/svg" width="500" height="500"><path fill="#5E1E8D" d="m255.625 61.875 3.683-.015C294.101 61.926 335.394 70.87 362 95v2l1.781.797c5.779 3.133 9.856 8.687 13.219 14.203q2.438-.435 4.875-.875l3.082-.555c2.55-.477 5.073-1.013 7.606-1.57 4.825-.976 9.674-1.568 14.562-2.125l2.28-.266c14.915-1.62 29.827-.121 42.595 8.391v2h2c3 5.75 3 5.75 3 8h2c4.907 8.872 5.258 16.123 2.51 25.867-4.323 14.11-11.558 25.592-20.242 37.403a209 209 0 0 0-3.006 4.23L437 194h-2l-.719 1.64c-1.624 2.993-3.631 5.472-5.781 8.11l-2.406 2.984L424 209h-2v2h-2v2h-2v2h-2v2h-2l-1 3c-1.742 1.79-1.742 1.79-3.875 3.625l-2.117 1.852C405 227 405 227 402 228v2h-2v2c-5.476 5-5.476 5-8 5v2c-1.61 1.48-3.291 2.885-5 4.25l-3.02 2.418A418 418 0 0 1 373 254c1.271 3.417 2.76 6.327 4.75 9.375 10.127 16.614 14.653 36.263 14.625 55.563l-.005 3.562c-.146 10.525-1.622 20.358-4.37 30.5l-.91 3.402c-4.443 14.638-12.374 29.883-23.742 40.293-1.476 1.285-1.476 1.285-2.348 3.305h-2v2c-17.887 16.697-38.821 26.107-62 33l-3 1c-2.288.36-4.58.69-6.875 1-4.816.642-4.816.642-9.59 1.527-3.392.633-6.784.843-10.223 1.036l-2.248.126c-20.335 1.046-40.043-.023-60.064-3.689l-3.285-.508c-3.011-.546-5.706-1.568-8.547-2.687-2.182-.81-4.362-1.438-6.606-2.055-18.158-5.387-35.953-13.694-50.023-26.465-2.512-2.371-2.512-2.371-5.539-4.285v-2l-3-1c-1.687-1.437-1.687-1.437-3-3v-2l-4.25.938-2.39.527c-1.4.317-2.796.648-4.184 1.008-3.895.944-7.841 1.66-11.776 2.422-2.876.565-5.615 1.177-8.4 2.105h-7l-3.691.508C70.065 401.225 57.249 399.5 46 392v-2h-2c-2.93-5.078-2.93-5.078-4-7l-1.102-1.926c-1.045-2.413-1.237-4.393-1.398-7.012-.173-2.79-.41-4.849-1.508-7.433-3.015-7.99-1.564-18.108 1.664-25.797L39 338l.828-1.749C45.823 323.7 45.823 323.7 49 319h2l.875-1.75L55 311h2l2-5h2l.676-1.637c1.751-3.125 4.071-5.585 6.511-8.175l1.568-1.679c4.393-4.67 8.864-9.262 13.37-13.822l1.973-2.012 1.847-1.85 1.641-1.654C90 274 90 274 92 274l.703-1.75c1.62-2.811 3.49-4.253 6.047-6.25a384 384 0 0 0 13.188-11c6.137-5.315 12.49-10.234 19.062-15-.69-3.591-2.179-6.434-3.937-9.625l-1.59-2.914c-1.377-2.528-1.377-2.528-3.473-4.461-6.644-17.516-10.345-36.328-8-55l.344-3.61c1.939-17.97 9.192-35.617 19.656-50.39h2l.688-1.562c1.794-3.333 3.812-6.585 6.312-9.438h2v-2c3.49-3.208 7.274-6.07 11-9l2.02-1.645c27.831-22.01 63.105-28.35 97.605-28.48m157.938 49.25C402.4 111.922 390.36 113.683 380 118l1 5 1.984-.586 2.766-.789 2.672-.773c9.636-2.294 18.932-3.193 28.828-3.165l3.39-.048c8.75-.005 15.803 1.43 22.883 6.861 3.902 3.964 4.641 8.998 4.852 14.375-.418 10.992-5.529 22.67-12.094 31.414-1.48 1.622-1.48 1.622-1.281 3.711h-2c-1.25 1.577-2.424 3.215-3.562 4.875-3.477 4.906-7.2 9.364-11.278 13.777-1.985 2.158-3.89 4.363-5.785 6.598-2.774 3.209-5.76 5.903-9.09 8.523L402 209v2h-2v2h-2v2l-1.625.688c-4.28 2.365-7.69 5.627-11.125 9.062C383 227 383 227 381 228v2l-1.586.656c-3.372 1.877-6.127 4.328-9.039 6.844l-1.773 1.512c-2.267 1.939-4.492 3.878-6.602 5.988 2.794 3.916 2.794 3.916 7 6a79 79 0 0 0 6.25-5.125q1.745-1.536 3.496-3.066l1.695-1.485c1.875-1.592 3.834-3.01 5.872-4.387L389 235v-2h2v-2h2v-2l1.668-.707c8.47-4.696 15.725-13.579 22.582-20.356l2.025-1.985 1.866-1.862 1.672-1.66c1.4-1.377 1.4-1.377 1.187-3.43l3-1v-2h2c2.398-2.637 2.398-2.637 3-6h2a94 94 0 0 0 4.125-5.375l2.195-3.023c1.86-2.366 1.86-2.366 1.68-4.602l2-1c8.14-11.475 15.97-26.498 14-41-2.056-7.335-5.028-13.485-11.566-17.625-10.617-5.758-21.018-6.858-32.872-6.25M393.375 125l-2.733.54c-4.153.538-4.153.538-7.642 2.46-.167 2.5-.167 2.5 0 5 1.091 1.325 1.091 1.325 3.773 1.027l3.602-.09c16.445-.066 16.445-.066 22.25 4.5 3.707 4 3.742 7.556 3.629 12.778C414.69 168.372 399.549 183.276 388 195l-2.007 2.064c-9.1 9.353-18.247 18.073-28.661 25.956l-2.52 1.917-2.23 1.653L351 228v2l-4 2 2 1v2c1.64 1.443 1.64 1.443 3.75 2.75l2.11 1.422c2.098 1.07 2.098 1.07 4.109.187a124 124 0 0 0 6.781-4.859l2.422-1.844L370 231v-2l1.703-.738c2.737-1.504 4.755-3.329 7.047-5.45l2.645-2.421L384 218a743 743 0 0 1 4.438-3.937l1.87-1.653C392 211 392 211 395 209v-2h2v-2h2v-2h2v-2l1.813-.812c2.185-1.187 3.6-2.284 5.187-4.188v-2h2c2.582-2.415 4.747-5.283 7-8l1.518-1.82q2.563-3.083 5.107-6.18l1.667-2.012c5.086-6.234 9.23-12.73 12.708-19.988l1.035-1.691c3.55-6.095 4.175-12.32 3.965-19.309-1.335-4.67-3.793-7.33-7.773-9.965-12.753-5.929-28.682-2.649-41.852-.035M384 140l-.7 3.184c-3.247 14.23-8.59 26.305-21.3 34.754-4.103 2.332-8.475 3.774-13 5.062v2l-3-1a59 59 0 0 0-4.02-.062l-2.35.023-4.85.078c-4.408.044-8.423-.292-12.78-1.039l-2 1-1-3c-1.64-.736-3.284-1.462-4.957-2.117-4.12-1.78-8.58-4.114-11.465-7.602L301 170c-3.605.43-6.332 1.523-9.477 3.293l-2.515 1.401-2.633 1.494-5.418 3.027-2.61 1.468a702 702 0 0 1-8.284 4.567l-2.454 1.336A5026 5026 0 0 1 252 195v3q5.279 1.57 10.563 3.125l3.284.967a496 496 0 0 0 18.951 5.14c16.432 4.104 32.403 9.303 47.37 17.33 3.697 1.979 3.697 1.979 7.832 2.438v2c4.206-1.984 7.61-4.637 11.25-7.5l1.969-1.512c1.633-1.28 3.212-2.63 4.781-3.988v-2l1.801-.827c2.135-1.14 3.623-2.29 5.379-3.939l1.795-1.678 1.9-1.806 1.98-1.867a805 805 0 0 0 13.832-13.446l1.744-1.729c5.848-5.12 5.848-5.12 8.569-11.708h2a104 104 0 0 0 4.875-6.375l1.365-1.932c5.028-7.299 9.146-14.608 7.76-23.693-2.222-2.984-3.704-4.655-7.336-5.621-2.738-.39-5.337-.512-8.101-.504l-2.747-.008c-3.002.142-5.862.585-8.816 1.133m-161 18c-3.783 4.608-5.363 8.85-5.285 14.875.717 5.344 4.222 9.739 8.285 13.125h2v2c1.64.903 1.64.903 4 1a74 74 0 0 0 7.063-4.062q2.033-1.27 4.07-2.536l2.009-1.258c3.232-1.99 6.576-3.759 9.92-5.55a511 511 0 0 0 8.796-4.913c7.275-4.132 14.604-8.04 22.142-11.681-6.144-7.627-16.609-9.86-26-11-12.365-1.08-28.051.437-37 10m58.313 8.875-2.24 1.205c-6.299 3.422-12.486 7.034-18.626 10.732-2.794 1.676-5.346 3.154-8.447 4.188v2l-1.672.309c-2.85.846-5.052 2.191-7.578 3.754l-2.703 1.66L238 192l1 2c3.625.201 5.865-.142 9-2v-2l1.697-.339c2.647-.76 4.747-1.887 7.147-3.24a812 812 0 0 1 13.25-7.218l3.68-1.965 5.641-3.008 5.554-2.964 3.295-1.757c2.829-1.51 2.829-1.51 5.736-3.509l-1-3c-4.763 0-7.633 1.65-11.687 3.875M134 243c-1.84 1.17-1.84 1.17-3.562 2.875-3.311 3.062-3.311 3.062-5.438 4.125v2l-1.68.746c-2.765 1.495-5.018 3.32-7.445 5.316-4.68 3.84-4.68 3.84-6.875 4.938v2h-2v2h-2v2l-1.687.727c-9.384 5.167-17.368 15.232-24.876 22.71-.88.877-1.762 1.753-2.67 2.656l-2.52 2.528c-1.12 1.12-1.12 1.12-2.26 2.264-3.652 3.531-3.652 3.531-4.987 8.115h-2v2h-2a94 94 0 0 0-4.562 6l-1.333 1.892C47.827 329.865 38.99 342.84 40 358a407 407 0 0 0 3.664-7.469c5.559-11.49 11.967-21.893 20.086-31.789 1.444-1.655 1.444-1.655 1.25-3.742h2a249 249 0 0 0 4-6l3-3v-2h2c1.705-1.685 1.705-1.685 3.438-3.812 3.406-4.04 3.406-4.04 5.285-5.825 1.505-1.295 1.505-1.295 1.277-3.363l1.68-.684c3.005-1.705 5.05-3.894 7.445-6.378 4.68-4.84 4.68-4.84 6.875-5.938v-2l1.75-.812c2.306-1.217 4.27-2.491 6.25-4.188v-2l1.672-.75c2.78-1.492 5.11-3.287 7.578-5.25l2.703-2.125L124 259v-2l1.672-.773c2.694-1.42 5.096-3.088 7.578-4.852l2.703-1.914L138 248c-.267-1.985-.267-1.985-1-4zm8 8c-1.955 1.124-1.955 1.124-3.937 2.875-2.733 2.24-5.466 4.446-8.32 6.527-.549.4-1.097.801-1.661 1.214q-2.386 1.734-4.773 3.466L121 267v2l-1.812.875c-2.381 1.172-2.381 1.172-5.188 3.125v2l-1.687.75c-2.737 1.48-4.99 3.185-7.313 5.25v2h-2v2l-1.688.705c-2.911 1.63-4.934 3.657-7.296 6.014l-2.832 2.824-1.458 1.47a794 794 0 0 1-4.456 4.444l-2.817 2.824-2.589 2.596C77.78 307.78 77.78 307.78 78 310h-2c-3.636 3.48-3.636 3.48-5 8h-2a104 104 0 0 0-3.875 5.688c-3.803 5.92-3.803 5.92-6.07 8.675C51.923 341.515 44.418 354.335 43 366c.761 3.117 1.408 4.542 3.953 6.512 10.268 5.256 19.291 6.845 30.734 6.3l2.716-.124C90.45 378.1 100.185 376.138 110 374c1.015-3.515.835-5.29-.437-8.75l-.872-2.422L108 361l-1.922.488c-4.125.686-8.153.696-12.328.7l-2.45.037c-8.149.02-15.91-.749-22.3-6.225-2.95-4.424-3.604-7.74-3-13 1.99-7.484 5.476-13.9 9.512-20.469 1.6-2.521 1.6-2.521 2.488-5.531h2c.963-1.415 1.92-2.835 2.836-4.28 1.94-2.867 4.3-5.326 6.664-7.845.473-.512.946-1.024 1.434-1.55 2.086-2.25 4.193-4.446 6.41-6.567C99.229 295.16 99.229 295.16 99 293l1.617-.621c3.382-1.957 5.813-4.639 8.508-7.442 5.635-5.817 5.635-5.817 7.875-6.937v-2l1.684-.746c2.76-1.494 4.97-3.305 7.379-5.317 2.99-2.491 5.98-4.972 9.03-7.39l2.97-2.36 2.722-2.144c2.117-1.953 3.162-3.395 4.215-6.043zm3.547 9.238-1.875 1.487-1.922 1.587-1.969 1.553c-1.64 1.322-3.217 2.723-4.781 4.135v2l-1.602.668c-3.266 1.814-5.964 4.208-8.773 6.644l-3.336 2.864-1.64 1.42a144 144 0 0 1-3.4 2.804c-1.45 1.16-2.854 2.375-4.249 3.6v2l-1.703.719c-2.816 1.57-4.777 3.496-7.047 5.781l-2.422 2.406c-2.047 1.882-2.047 1.882-1.828 4.094h-2v2h-2c-3.636 3.48-3.636 3.48-5 8h-2c-7.416 8.66-16.126 20.43-17.312 32.063.363 3.417 1.26 5.202 3.312 7.937 9.725 6.483 22.1 3.4 33 2l-.012-3.207c.027-8.662 1.243-15.168 4.856-23.129.972-2.24 1.66-4.282 2.156-6.664h2a64 64 0 0 0 3-3.562c7.861-9.199 17.17-13.77 29-15.438 12.171-.657 20.647.979 31.398 6.66 2.608 1.427 2.608 1.427 5.602 2.34v2h2v2h2v2c1.655 1.805 1.655 1.805 4 3 4.968-.357 9.078-2.931 13.375-5.25l2.46-1.312c6.954-3.733 13.848-7.572 20.727-11.438l3.047-1.708 2.832-1.604 2.522-1.426c2.155-1.228 2.155-1.228 4.037-3.262q-2.03-.69-4.062-1.375l-2.286-.773c-4.01-1.288-8.064-2.411-12.122-3.538-22.74-6.335-45.495-13.219-64.796-27.283-1.827-1.287-1.827-1.287-4.734-1.031l-1-3c-3.295-1.476-4.716-.955-7.453 1.238m96.828 42.387-3.746 2.219-1.863 1.113c-2.453 1.449-4.948 2.813-7.453 4.168l-2.684 1.453L224 313l-5.25 2.875c-6.89 3.76-13.82 7.44-20.75 11.125l2 1v2h2v2a125 125 0 0 0 6 4l1.965-1.066 9.097-4.934 3.328-1.805c5.32-2.884 10.647-5.752 16.005-8.565 7.421-3.9 14.51-8.174 21.605-12.63a955 955 0 0 1 5-3c-2.157-2.157-3.461-2.676-6.312-3.625-.76-.26-1.519-.52-2.301-.79-5.775-1.417-9.072.005-14.012 3.04m23.813 6.75-2.958 1.7c-6.062 3.613-6.062 3.613-12.111 7.248C238.98 325.647 226.826 332.933 214 339c.734 3.127.734 3.127 3.25 4.75 3.386 1.54 4.215 1.292 7.75.25 2.842-1.265 5.573-2.716 8.313-4.187l2.461-1.307c8.162-4.382 16.155-9.055 24.128-13.77 4.634-2.74 9.231-5.43 14.098-7.736v-2l6-2c-4.892-5.3-7.29-7.412-13.812-3.625m10.437 10.25c-5.707 3.838-11.547 7.17-17.625 10.375-4.674 2.54-9.277 5.157-13.812 7.938-5.558 3.369-11.343 6.23-17.188 9.062 8.54 5.694 20.082 6.075 30 5 6.85-1.494 13.824-3.654 20-7v-2l1.828-.785c3.78-2.114 5.558-5.267 7.172-9.215.864-5.219.996-10.125-1.937-14.687L283 316c-2.185 0-4.692 2.47-6.375 3.625M43 376c.882 6.048 3.365 9.31 8.047 13.2 8.75 5.335 19.9 6.671 29.953 5.8l3.68-.285c12.006-1.1 23.627-3.86 35.32-6.715-1.236-3.423-2.411-6.393-5-9-2.251-.342-2.251-.342-4.687.125l-2.704.383c-2.872.542-5.659 1.25-8.476 2.02-3.483.771-7.003.982-10.555 1.253-2.71.194-2.71.194-5.89.781C67.374 385.38 56.644 382.707 43 376"/><path fill="#BD9AC1" d="m264 71 2.078.038c32.967.796 70.549 12.916 94.961 35.876 9.1 9.68 13.583 19.92 13.438 33.23-.361 8.51-3.414 15.105-8.477 21.856l-2.062 3c-5.302 6.257-14.973 10.515-23.016 11.3-10.34.039-18.079-1.834-26.914-7.214-2.054-1.11-3.69-1.798-6.008-2.086l-2.312 1.875C303 171 303 171 299.94 171.309c-5.161.612-9.26 3.316-13.691 5.879l-5.355 3.023-2.572 1.468a454 454 0 0 1-8.385 4.633 776 776 0 0 0-7.97 4.38l-3.03 1.683-2.723 1.523C254 195 254 195 252 195v3l2.664.594C284.3 205.32 312.724 213.394 340 227v2a6482 6482 0 0 0 7.383-5.887A243 243 0 0 0 353.5 218c2.5-2 2.5-2 4.5-2v-2a97 97 0 0 1 4.82-3.96c6.072-4.862 11.578-10.14 17.055-15.665l2.758-2.734c3.749-3.76 7.362-7.405 10.375-11.79L395 177h2l.719-1.57c2.047-3.883 4.555-7.483 7.004-11.121 4.125-6.277 6.006-11.776 5.277-19.309-1.825-2.636-3.011-3.72-6.094-4.594-3.92-.548-7.766-.512-11.719-.469l-2.388.014q-2.9.02-5.799.049l-1 9h-1a620 620 0 0 1-.062-4.625l-.036-2.602c.106-2.996.55-5.828 1.098-8.773 24.218-.588 24.218-.588 31.758 6.465 3.313 4.094 2.693 9.586 2.242 14.535-3.01 15.945-16.98 29.817-28 41l-2.105 2.163C378.303 205.98 369.723 214.433 360 222a467 467 0 0 0-4.062 3.563C353 228 353 228 351 228v2l-3 2 1 3c2.295 1.135 2.295 1.135 5 2q2.504.991 5 2l1.898-1.75 2.477-2.25 2.46-2.25C368 231 368 231 370 231v-2c1.73-1.523 1.73-1.523 4.188-3.375 5.128-3.977 9.842-8.276 14.52-12.763C392.79 209 392.79 209 395 209v-2h2v-2h2v-2h2v-2c2.375-2.625 2.375-2.625 5-5h2v-2h2l.723-1.7c1.56-2.809 3.488-4.793 5.714-7.113 4.137-4.473 7.894-9.089 11.5-14l1.395-1.884c2.627-3.626 4.74-7.245 6.668-11.303l1.352-2.316c3.8-6.703 4.987-12.987 4.648-20.684-1.19-3.99-2.412-5.457-5.437-8.25-13.317-6.541-29.507-3.545-43.5-.812l-2.64.514c-4.683.828-4.683.828-8.423 3.548-2.429-6.286-2.429-6.286-1-10l1 2 1.766-.586c11.1-3.525 21.862-4.76 33.484-4.727l3.39-.048c9.322-.006 16.263 1.723 23.66 7.638 4.07 4.125 4.846 8.973 5.075 14.598-.476 12.53-7.033 25.175-14.375 35.125h-2l-.695 2.125c-1.563 3.444-3.715 6.056-6.18 8.875-.48.557-.96 1.115-1.453 1.69-5.407 6.239-10.997 12.315-16.672 18.31l-2.223 2.371C404 209 404 209 402 209v2h-2v2h-2v2c-1.68 1.727-1.68 1.727-3.875 3.625l-2.18 1.914C390 222 390 222 388 222l-1 3c-3.444 3-3.444 3-6 3v2a151 151 0 0 1-6.687 5.375l-3.762 2.898-1.851 1.416a237 237 0 0 0-4.25 3.374c-2.907 2.299-5.92 4.431-8.95 6.562a375 375 0 0 0-14.062 10.438c-10.392 8.08-21.4 15.285-32.362 22.559-3.82 2.537-7.635 5.083-11.451 7.628l-6.45 4.298a1079 1079 0 0 0-4.592 3.084c-1.19.8-1.19.8-2.403 1.618l-2.173 1.469c-2.567 1.638-5.286 2.92-8.007 4.281l-1 2h-2l-1 2a816 816 0 0 1-5 2 305 305 0 0 0-8.447 5.254C252.203 319 252.203 319 250 319l-1 2a157 157 0 0 1-6.812 3.688 345 345 0 0 0-17.504 9.769C216.782 339 216.782 339 214 339v2l-2.062.313c-3.525.824-6.66 2.191-9.938 3.687l-2.363 1.063a606 606 0 0 0-14.45 6.734c-14.433 6.926-28.942 12.525-44.225 17.28a695 695 0 0 0-8.005 2.552c-5.626 1.81-11.09 3.519-16.957 4.371l-1 3-1.906.148c-4.103.359-8.056.745-12.031 1.852-4.13 1.128-8.226 1.455-12.485 1.781-2.71.194-2.71.194-5.89.781C68.07 386.298 55.804 384.414 43 377c-1.883-2.195-1.883-2.195-3-4l-2 3-.375-3.187c-.432-3.637-.432-3.637-1.64-6.106-2.941-8.086-1.59-18.106 1.671-25.875L39 338l.828-1.749C45.823 323.7 45.823 323.7 49 319h2l.875-1.75L55 311h2l2-5h2l.676-1.637c1.751-3.125 4.071-5.585 6.511-8.175l1.568-1.679c4.393-4.67 8.864-9.262 13.37-13.822l1.973-2.012 1.847-1.85 1.641-1.654C90 274 90 274 92 274l.703-1.75c1.62-2.811 3.49-4.253 6.047-6.25 4.49-3.57 8.861-7.234 13.188-11 5.402-4.68 10.961-9.044 16.734-13.258 2.363-1.682 2.363-1.682 4.328-3.742 1.5 1.375 1.5 1.375 3 3v2c-1.898 1.727-1.898 1.727-4.375 3.625l-2.46 1.914C127 250 127 250 125 250v2a105 105 0 0 1-6 5l-2.11 1.66C111.269 263 111.269 263 109 263v2h-2v2h-2v2c-1.526 1.345-3.113 2.62-4.723 3.863-6.104 4.888-11.638 10.193-17.141 15.74a981 981 0 0 1-4.79 4.778l-3.092 3.1c-.915.916-1.83 1.833-2.771 2.778-1.848 2.04-3.235 3.8-4.686 6.086L66 308h-2v2h-2l-.773 2.227c-1.291 2.919-2.75 4.761-4.852 7.148C48.682 328.778 41 341.507 41 354l1.469-3.078C46.72 342.139 51.324 333.966 57 326c.73-1.05 1.46-2.101 2.21-3.184 4.068-5.763 4.068-5.763 5.79-7.816h2l.688-2.125c1.65-3.616 3.603-5.963 6.312-8.875h2l.793-1.785c1.271-2.333 2.61-3.819 4.52-5.652l1.738-1.684L85 293a652 652 0 0 0 7.605-7.676l2.582-2.637 2.606-2.675C100 278 100 278 102 278v-2c5.476-5 5.476-5 8-5v-2c2.047-1.875 2.047-1.875 4.75-4l2.672-2.125c2.156-1.568 4.155-2.788 6.578-3.875v-2a105 105 0 0 1 5.875-4.625l1.684-1.273C135.738 248 135.738 248 138 248l1-3 4 5c-3.791 3.95-7.813 7.382-12.125 10.75l-1.879 1.496c-2.642 2.074-4.785 3.684-7.996 4.754v2c-4.47 4-4.47 4-7 4v2c-1.46 1.508-1.46 1.508-3.375 3.125l-1.898 1.633C107 281 107 281 105 281v2h-2v2c-1.453 1.434-1.453 1.434-3.473 3.105-4.542 3.864-8.761 7.98-12.965 12.207l-2.177 2.167-2.069 2.072-1.86 1.864c-1.548 1.539-1.548 1.539-2.456 3.585h-2l-.812 1.75c-1.217 2.306-2.491 4.27-4.188 6.25h-2l-.855 1.723c-5.21 10.367-5.21 10.367-8.582 13.652-3.882 3.976-6.09 8.686-8.563 13.625l-1.422 2.809C44.568 360.058 44.568 360.058 45 371c2.305 1.128 2.305 1.128 5 2l2.395 1.035c.797.34 1.595.678 2.417 1.027l2.395 1.036c6.727 2.173 13.5 2.047 20.48 1.714l2.716-.124C90.45 377.1 100.185 375.138 110 373v-6c2 2 2 2 3 5 26.94-3.511 53.622-16.68 78-28l5.377-2.478Q200.19 339.763 204 338v-3l-3-1c-.687-2.062-.687-2.062-1-4h2v2l1.875.938L208 335c2.32-.967 2.32-.967 4.918-2.465l3.03-1.663 3.24-1.81 6.593-3.632 3.242-1.794c3.697-2.032 7.427-3.994 11.165-5.949 5.863-3.11 11.497-6.481 17.105-10.023 2.2-1.353 4.375-2.562 6.707-3.664-8.214-3.942-8.214-3.942-17-3a173 173 0 0 0-9.328 5.406C235 308 235 308 232 309l-2 2a165 165 0 0 1-5.5 3.125l-2.969 1.633C219 317 219 317 217 317l-1 2c-1.55.961-1.55.961-3.527 1.945l-2.15 1.075-2.26 1.105-2.249 1.129C200.267 327 200.267 327 198 327v-3c-1.145.03-1.145.03-2.312.063C193 324 193 324 190 323l1-4 2 2c4.932-.257 9.122-2.955 13.375-5.25l2.458-1.312c6.969-3.744 13.889-7.576 20.792-11.438l3.072-1.708 2.842-1.604 2.538-1.426c2.063-1.124 2.063-1.124 2.923-3.262l2.5-.277c4.907-1.014 8.366-3.537 12.5-6.286q2.544-1.654 5.094-3.3l2.523-1.632c3.23-2.04 6.539-3.91 9.883-5.755 5.431-3.04 10.427-6.431 15.39-10.184C291 266 291 266 293 265v-2c-23.445-9.323-23.445-9.323-47.473-16.965-19.784-5.806-19.784-5.806-27.464-11.035-3.023-2.166-3.023-2.166-6.75-3.187-6.07-2.146-10.546-6.63-15.313-10.813l-2.902-2.426C180.586 207.814 173.767 193.624 169 178c-2.993.998-3.948 1.752-6 4l-2-3-1.687.5c-2.513.543-4.748.566-7.313.5-2.854 0-5.233.345-8 1-1.442 1.442-2.118 3.177-3 5h-2l-.367 2.195c-.882 5.09-1.797 9.954-3.633 14.805h-2q.934 3.563 1.875 7.125l.527 2.016A167 167 0 0 0 139 224l-3-2v-2h-4a756 756 0 0 1-2.875-7.687l-.816-2.127c-6.894-18.915-7.57-44.345-.309-63.186l1.133-3.102c1.182-3.028 2.48-5.958 3.867-8.898l1.523-3.246c4.083-8.137 9.192-14.234 15.477-20.754a487 487 0 0 0 3.375-4.125c19.692-22.434 54.5-33.456 83.438-35.562 9.062-.435 18.117-.496 27.187-.313m-41 87c-3.783 4.608-5.363 8.85-5.285 14.875.717 5.344 4.222 9.739 8.285 13.125h2v2c1.64.903 1.64.903 4 1a74 74 0 0 0 7.063-4.062q2.033-1.27 4.07-2.536l2.009-1.258c3.232-1.99 6.576-3.759 9.92-5.55a511 511 0 0 0 8.796-4.913c7.275-4.132 14.604-8.04 22.142-11.681-6.144-7.627-16.609-9.86-26-11-12.365-1.08-28.051.437-37 10m58.313 8.875-2.24 1.205c-6.299 3.422-12.486 7.034-18.626 10.732-2.794 1.676-5.346 3.154-8.447 4.188v2l-1.672.309c-2.85.846-5.052 2.191-7.578 3.754l-2.703 1.66L238 192l1 2c3.625.201 5.865-.142 9-2v-2l1.697-.339c2.647-.76 4.747-1.887 7.147-3.24a812 812 0 0 1 13.25-7.218l3.68-1.965 5.641-3.008 5.554-2.964 3.295-1.757c2.829-1.51 2.829-1.51 5.736-3.509l-1-3c-4.763 0-7.633 1.65-11.687 3.875"/><path fill="#40126B" d="M367 257c2.966-.182 4.341-.19 7 1 13.863 15.208 18.403 41.212 18.375 60.938l-.005 3.562c-.146 10.525-1.622 20.358-4.37 30.5l-.91 3.402c-4.443 14.638-12.374 29.883-23.742 40.293-1.476 1.285-1.476 1.285-2.348 3.305h-2v2c-17.887 16.697-38.821 26.107-62 33l-3 1c-2.288.36-4.58.69-6.875 1-4.816.642-4.816.642-9.59 1.527-3.392.633-6.784.843-10.223 1.036l-2.248.126c-20.335 1.046-40.043-.023-60.064-3.689l-3.285-.508c-3.011-.546-5.706-1.568-8.547-2.687-2.182-.81-4.362-1.438-6.606-2.055-18.158-5.387-35.953-13.694-50.023-26.465-2.512-2.371-2.512-2.371-5.539-4.285v-2l-3-1c-1.187-3.062-1.187-3.062-2-6 2.76-2.76 5.963-3.264 9.625-4.312 9.476-2.85 18.598-6.452 27.75-10.188l2.05-.833c9.669-3.937 19.368-7.93 28.642-12.739 3.897-1.932 6.611-1.964 10.867-1.19 3.455.438 6.643-.188 10.066-.738-1.75 3.875-1.75 3.875-4 5l2 1v2l2.625.313C219 370 219 370 221.762 371.5c3.65 1.691 6.423 1.994 10.426 2.188l3.667.199c11.02.397 21.813.14 32.145-3.887h4v-2l2.188-.75c3.086-1.372 5.24-3.074 7.812-5.25l2.25-1.562c2.038-1.414 2.038-1.414 2.75-4.438h2v-2l-1.75.563c-2.25.437-2.25.437-4.062-.18-3.09-.54-4.67.525-7.438 1.93-8.251 4.16-15.703 5.076-24.812 5.062l-3.063-.003c-11.227-.176-20.633-2.859-30.875-7.372v-2c5.995-3.806 10.097-4.514 17-3l2.043.527c13.743 3.533 25.005 1.061 37.957-3.527a90 90 0 0 1 4-1v-2l5-5c3.535-4.145 3.428-8.173 3.309-13.406-.372-3.12-1.49-5.062-3.309-7.594 1.219-3.657 2.074-3.906 5.348-5.75l2.752-1.58c.978-.55 1.955-1.102 2.962-1.67 7.935-4.553 15.589-9.275 22.925-14.748 4.498-3.259 4.498-3.259 7.447-3.22 4.282-.053 7.176-2.783 10.566-5.22l2.117-1.462A72.4 72.4 0 0 0 348 274c5.259-4.078 5.259-4.078 8.375-3.75L358 271c-1.098 2.993-1.677 3.846-4.625 5.25L351 277v2c-1.574 1.148-1.574 1.148-3.687 2.375-2.52 1.504-4.714 2.951-7 4.813-2.363 1.851-4.487 2.843-7.313 3.812v2a105 105 0 0 1-5 4l.875 1.68 1.125 2.195 1.125 2.18C332 304 332 304 332 306l3-1v-2c3.22-1.073 3.904-.87 7 0h3l3 2 1.688-1c2.764-1.195 4.326-1.437 7.312-1 2.625 1.938 2.625 1.938 5 4l3 1h-2c-.268 4.817.888 7.26 3.438 11.25 1.96 3.451 3.237 7.018 4.562 10.75 1.196 3.643 1.196 3.643 3.688 6.375C376 338 376 338 375.688 341.25L375 345a193 193 0 0 0 0 7h2l.438-3.75c.349-2.815.766-5.52 1.562-8.25h2c2.164-16.87 2.425-33.763-3-50l-.805-2.781C374.24 277.872 368.883 269.445 364 261z"/><path fill="#BA5BE1" d="m306 83 3.547 1.023c14.754 4.543 30.077 10.618 41.394 21.36 2.147 2.029 2.147 2.029 6.059 1.617l2-2c10.351 11.583 15.896 21.3 15.355 37.113-.704 7.702-3.744 13.74-8.355 19.887l-2.062 3c-5.302 6.257-14.973 10.515-23.016 11.3-10.34.039-18.079-1.834-26.914-7.214-2.054-1.11-3.69-1.798-6.008-2.086l-2.312 1.875C303 171 303 171 299.94 171.309c-5.161.612-9.26 3.316-13.691 5.879l-5.355 3.023-2.572 1.468a454 454 0 0 1-8.385 4.633 776 776 0 0 0-7.97 4.38l-3.03 1.683-2.723 1.523C254 195 254 195 252 195v3l2.664.594c26.428 5.999 52.435 12.86 77.149 24.156l2.465 1.105 2.242 1.067 1.971.925c1.973 1.508 2.146 2.75 2.509 5.153l-6 5c-3.945-1.484-7.695-3.279-11.48-5.122-14.26-6.91-28.201-11.383-43.566-15.154C223.718 201.887 223.718 201.887 211 184c-8.16-13.591-9.777-31.114-6.09-46.516 3.632-11.352 9.28-21.5 17.09-30.484l2.105-2.43C245.612 81.443 276.288 74.013 306 83m-83 75c-3.783 4.608-5.363 8.85-5.285 14.875.717 5.344 4.222 9.739 8.285 13.125h2v2c1.64.903 1.64.903 4 1a74 74 0 0 0 7.063-4.062q2.033-1.27 4.07-2.536l2.009-1.258c3.232-1.99 6.576-3.759 9.92-5.55a511 511 0 0 0 8.796-4.913c7.275-4.132 14.604-8.04 22.142-11.681-6.144-7.627-16.609-9.86-26-11-12.365-1.08-28.051.437-37 10m58.313 8.875-2.24 1.205c-6.299 3.422-12.486 7.034-18.626 10.732-2.794 1.676-5.346 3.154-8.447 4.188v2l-1.672.309c-2.85.846-5.052 2.191-7.578 3.754l-2.703 1.66L238 192l1 2c3.625.201 5.865-.142 9-2v-2l1.697-.339c2.647-.76 4.747-1.887 7.147-3.24a812 812 0 0 1 13.25-7.218l3.68-1.965 5.641-3.008 5.554-2.964 3.295-1.757c2.829-1.51 2.829-1.51 5.736-3.509l-1-3c-4.763 0-7.633 1.65-11.687 3.875"/><path fill="#B46ADB" d="m185 108-2 6h-2c-1.316 3.62-2 6.096-2 10l2-1v3h2l1-3 5 7-1 2h7l-1 3 1 3h-2l1 2c2.35-1.898 2.35-1.898 2.125-5.125L196 132l5-1c.168 3.945.016 7.243-1 11.063-3.284 14.085-.43 30.07 6.531 42.699 9.03 13.76 23.197 21.162 38.79 25.457 19.617 5.72 19.617 5.72 22.679 8.781 4.105 2.28 8.272 4 13 4l2 2c2.655.565 5.291.738 8 1v2l9 1 1-2c6.4.914 11.638 3.072 17.375 5.938l2.127 1.054c3.303 1.691 5.973 3.298 8.498 6.008-5.919 4.76-12.033 9.24-18.187 13.688l-2.34 1.692a563 563 0 0 1-4.455 3.176 95 95 0 0 0-3.727 2.798c-1.53 1.166-1.53 1.166-4.291 2.646-2.338-.781-2.338-.781-5-2q-2.673-1.02-5.352-2.023l-3.082-1.157-3.191-1.195-3.121-1.172A3637 3637 0 0 0 267 253l-2.986-1.113c-4.903-1.808-9.774-3.473-14.827-4.824-22.724-6.343-22.724-6.343-31.125-12.063-3.022-2.166-3.022-2.166-6.75-3.187-6.068-2.146-10.545-6.63-15.312-10.813l-2.902-2.426C180.586 207.814 173.767 193.624 169 178c-2.993.998-3.948 1.752-6 4l-2-3-1.687.5c-2.513.543-4.748.566-7.313.5-2.854 0-5.233.345-8 1-1.442 1.442-2.118 3.177-3 5h-2l-.367 2.195c-.882 5.09-1.797 9.954-3.633 14.805h-2q.934 3.563 1.875 7.125l.527 2.016A167 167 0 0 0 139 224l-3-2v-2h-4a756 756 0 0 1-2.875-7.687l-.816-2.127c-4.16-11.415-4.598-22.96-4.434-34.999l.027-3.869q.035-4.659.098-9.318h1l1 6h3l.336-3.852c1.378-12.276 4.802-28.003 13.664-37.148 2.074-.707 2.074-.707 4-1 3.16-1.275 3.16-1.275 5-4a171 171 0 0 1 7.625-3.937l2.121-1.053c3.326-1.639 6.665-3.21 10.078-4.658 3.22-1.318 3.22-1.318 6.363-3.04C181 108 181 108 185 108"/><path fill="#9F5DC7" d="M452 115v2h2c3 5.75 3 5.75 3 8h2c4.907 8.872 5.258 16.123 2.51 25.867-4.323 14.11-11.558 25.592-20.242 37.403a209 209 0 0 0-3.006 4.23L437 194h-2l-.719 1.64c-1.624 2.993-3.631 5.472-5.781 8.11l-2.406 2.984L424 209h-2v2h-2v2h-2v2h-2v2h-2l-1 3c-1.742 1.79-1.742 1.79-3.875 3.625l-2.117 1.852C405 227 405 227 402 228v2h-2v2c-5.476 5-5.476 5-8 5v2c-1.61 1.48-3.291 2.885-5 4.25l-3.023 2.434a182 182 0 0 1-9.516 6.93c-1.788 1.697-2.082 2.986-2.461 5.386l-2.375-.187L367 258l-2 3 .839 1.446c5.514 9.564 10.87 18.958 14.161 29.554l.96 3.031c2.096 7.92 2.316 15.622 2.353 23.781l.016 3.218c-.057 6.286-.734 11.888-2.329 17.97h-2l-.437 3.188A143 143 0 0 1 377 352h-2l-1 3q-.04-3.657-.062-7.312l-.026-2.092c-.015-3.144.086-5.59 1.088-8.596l-1.812-1.5c-2.445-2.793-3.354-5.16-4.54-8.621-.714-2.07-1.645-3.935-2.648-5.879a1765 1765 0 0 1-3-7l-1-2c.438-2.125.438-2.125 1-4-2.639-1.414-5.071-2.372-8-3v-2l-1.61.762c-2.13.921-4.125 1.72-6.39 2.238-2.25-1.375-2.25-1.375-4-3-2.074.248-2.074.248-4 1h-3l-1 5-1-3h-2l-5-11c4-3 4-3 6-3v-2c1.793-1.367 1.793-1.367 4.188-2.875 2.688-1.723 5.152-3.405 7.625-5.437 2.145-1.656 3.535-2.295 6.187-2.688v-2a375 375 0 0 1 6-4l1-2c-4.539.534-7.29 2.42-11 5l-3 1-1 3c-2.39 2.148-5.097 3.878-7.75 5.688l-2.172 1.548c-4.071 2.803-6.129 3.78-11.078 3.764-2.841 1.47-5.395 3.338-8 5.188a1507 1507 0 0 1-4.79 3.285l-2.547 1.742c-4.606 3.087-9.318 6-14.038 8.91l-2.719 1.684c-6.474 3.988-6.474 3.988-9.115 5.23-1.968.834-1.968.834-2.791 2.961-4.5 3-4.5 3-7 3l-1 2a103 103 0 0 1-5.437 3.125l-2.997 1.633C259 331 259 331 257 331l-1 2a88 88 0 0 1-4 2q-2.82 1.643-5.625 3.313c-5.35 3.141-10.784 6.003-16.375 8.687l1 2-4 1v-2l-1.68.875-2.195 1.125-2.18 1.125C219 352 219 352 217 352v2l1.598.375c4.117 1.071 8.154 2.409 12.21 3.688 15.067 4.425 33.349 3.794 47.258-3.72 4.201-1.923 6.483-1.187 10.934-.343v2h-2l-.258 1.805c-.954 2.824-2.196 3.626-4.617 5.32l-2.117 1.508C275.063 368 275.063 368 272 368v2c-5.975 1.947-11.717 3.48-18 4l-3.059.277C226.44 376.425 226.44 376.425 216 370l-3-1v-2l-3-1 4-4-2.52.254-3.292.308-3.27.317C202 363 202 363 199 362c-2 .516-2 .516-4.098 1.477l-2.431 1.035-2.534 1.113-2.45 1.043a195 195 0 0 0-12.233 5.754c-6.247 3.161-12.734 5.667-19.254 8.203l-3.656 1.445c-6.09 2.384-12.129 4.588-18.453 6.267-2.1.583-2.1.583-3.891 2.663h-4l1 3h-2v-2l-4.25.938-2.39.527c-1.4.317-2.796.648-4.184 1.008-3.895.944-7.841 1.66-11.776 2.422-2.876.565-5.615 1.177-8.4 2.105h-7l-3.691.508C70.065 401.225 57.249 399.5 46 392v-2h-2a495 495 0 0 1-2.973-5.207c-1.028-1.846-1.028-1.846-2.34-3.73-1.14-3.423-.274-6.54.313-10.063 2.11 2.68 3.73 5.326 5.25 8.375 3.925 6.97 7.559 10.212 15.395 12.46C66.824 393.677 73.579 394.65 81 394l3.82-.32c8.585-.828 16.909-2.34 25.292-4.359C113.544 388.5 116.446 388 120 388l-2-3.25c-1.883-3.06-2-3.884-2-7.75l3.496-.996c13.154-3.813 26.016-8.276 38.858-13.029 2.1-.773 4.205-1.528 6.314-2.276 10.285-3.736 20.043-8.734 29.86-13.542 2.458-1.15 4.948-2.158 7.472-3.157.79-.4 1.58-.8 2.395-1.21 6.484-3.123 6.484-3.123 9.855-2.122 2.063 1.144 2.063 1.144 3.863 2.414 2.752 1.339 3.973.857 6.887-.082 2.84-1.272 5.573-2.715 8.313-4.187l2.455-1.305C247.689 331.103 259.735 324.51 271 317h3v-2c2.5-1.625 2.5-1.625 5-3l-6-4c.191-1.812.191-1.812 1-4 2.09-1.5 2.09-1.5 4.938-3 5.405-3 10.559-6.234 15.687-9.687l2.316-1.56q2.357-1.587 4.712-3.177a869 869 0 0 1 6.87-4.56c15.142-9.976 29.746-20.637 44.22-31.555l1.725-1.298a210 210 0 0 0 3.844-3.003C360 245 360 245 362.126 245.063c2.415 1.207 2.918 2.466 3.875 4.937 4.04-.569 6.313-2.66 9.375-5.25l2.926-2.45a1120 1120 0 0 0 4.68-4.007C386.823 235 386.823 235 389 235v-2h2v-2h2v-2c1.393-1.2 2.845-2.33 4.313-3.437 5.929-4.73 11.27-9.946 16.625-15.313l2.51-2.51c4.545-4.575 4.545-4.575 8.687-9.51L427 196h2l.938-1.875L432 190h2l.797-2.238c1.206-2.77 2.528-4.64 4.453-6.95 9.68-12.165 18.462-27.5 18.07-43.48-.91-6.634-3.821-12.426-8.32-17.332-16.168-10.787-35.214-8.715-53.371-5.402C393 115 393 115 389 115l-1 2q-3.499.509-7 1l-2 2c-3-5.625-3-5.625-3-9l1.492.586c3.674.607 7.034-.227 10.633-.961l2.207-.422c3.947-.748 3.947-.748 7.668-2.203 2.876-.4 5.74-.75 8.625-1.062l2.371-.276c15.064-1.661 30.087-.273 43.004 8.338"/><path fill="#8436BD" d="m167 177 3 1a91 91 0 0 1 2.875 7.5c2.21 6.212 4.606 11.899 8.125 17.5l1.223 2.152c6.935 11.506 19.197 21.783 31.586 26.856 2.13.965 3.85 2.082 5.754 3.43 5.599 3.65 12.18 5.11 18.532 6.98 2.569.785 5.078 1.7 7.593 2.644 3.677 1.373 7.361 2.575 11.125 3.688 6.238 1.89 12.368 4.04 18.5 6.25l2.821 1.007c5.502 2.002 10.681 4.27 15.866 6.993-1.294 3.883-2.84 4.487-6.25 6.688l-3.3 2.136c-9.903 6.273-9.903 6.273-14.41 8.883-2.215 1.36-2.215 1.36-4.816 3.434-8.126 5.864-8.126 5.864-13.855 5.85-3.913-.788-7.65-1.866-11.431-3.116a624 624 0 0 0-4.123-1.219 396 396 0 0 1-8.123-2.493 265 265 0 0 0-9.45-2.78c-32.368-8.97-65.494-24.046-83.148-54.156-1.025-2.087-1.638-3.955-2.094-6.227h3l2 2-.805-1.766C134.33 213.581 132.936 207.17 132 200l2 2 1.023-3.465 1.352-4.472.672-2.288c.593-1.943 1.268-3.862 1.953-5.775l2-1c.658-3.03.658-3.03 1-6l3 1 2-2h2l2 2c1.887-.367 1.887-.367 4-1a100 100 0 0 1 5 0h3l1 2z"/><path fill="#571F8E" d="M356.375 270.25 358 271c-1.098 2.993-1.677 3.846-4.625 5.25L351 277v2c-1.574 1.148-1.574 1.148-3.687 2.375-2.52 1.504-4.714 2.951-7 4.813-2.363 1.851-4.487 2.843-7.313 3.812v2a105 105 0 0 1-5 4l.875 1.68 1.125 2.195 1.125 2.18C332 304 332 304 332 306l3-1v-2c3.22-1.073 3.904-.87 7 0h3l3 2 1.688-1c2.764-1.195 4.326-1.437 7.312-1 2.625 1.938 2.625 1.938 5 4l3 1h-2c-.268 4.817.888 7.26 3.438 11.25 1.96 3.451 3.237 7.018 4.562 10.75 1.196 3.643 1.196 3.643 3.688 6.375C376 338 376 338 375.688 341.25L375 345a193 193 0 0 0 0 7h2l.438-3.75c.349-2.815.766-5.52 1.562-8.25h2c-3.74 24.938-17.768 47.702-37.75 63.063-3.24 1.931-5.515 2.664-9.25 2.937v-3h2l.188-1.687c1.335-3.802 4.268-6.182 7.476-8.532 1.899-1.35 1.899-1.35 4.336-3.781.503-3.212.503-3.212 0-6l2-1c.42-2.288.42-2.288 0-5a141 141 0 0 0-5-5v-3h-6v-2l-1.875 1.5C335 370 335 370 333 370v-2c-5.55 1.514-8.107 3.687-11.687 8.063-2.84 2.379-5.485 3.151-8.993 4.222-6.597 1.968-6.597 1.968-11.32 6.715h-2l-3 2v-2l-3 2h-3l2 7-4 1v3h-2l-2-2h-3l-1 3c-1.437 1.688-1.437 1.688-3 3h-2l-1 3c-1.777 1.316-1.777 1.316-3.937 2.563-2.368 1.379-4.113 2.487-6.063 4.437h-3v2c-3.73 2.034-5.67 3-10 3v-2h2l.703-1.781c1.619-2.77 3.386-3.945 6.047-5.719l2.73-1.852a220 220 0 0 1 5.582-3.523C284.283 392.392 295.524 372.659 299 353c1.198-16.108-.629-28.624-8-43l1.769-1.082q4.055-2.487 8.106-4.98l2.781-1.702c5.552-3.42 10.872-6.992 16.06-10.949 2.684-1.513 4.253-1.352 7.284-1.287 2.002-.885 2.002-.885 3.813-2.23l2.07-1.436 2.117-1.522 2.117-1.462A72.4 72.4 0 0 0 348 274c5.259-4.078 5.259-4.078 8.375-3.75"/><path fill="#C6A484" d="m145 252 6 5-1.937 1.5c-3.48 2.84-6.772 5.85-10.075 8.89C137 269 137 269 135 269v2c-1.407 1.248-2.879 2.423-4.375 3.563-4.723 3.668-9.131 7.567-13.496 11.652C115 288 115 288 112 289v2c-1.574 1.516-1.574 1.516-3.687 3.25-2.666 2.25-5.023 4.45-7.188 7.188L99 304h-2v2h-2l-.812 1.75c-1.217 2.306-2.491 4.27-4.188 6.25h-2l-.797 1.719c-1.293 2.452-2.804 4.553-4.453 6.781-5.377 7.639-11.652 16.705-10.75 26.5.552 2.681.552 2.681 2 5 9.85 4.975 22.436 2.874 33 2l-.508-3.207C105.051 341.687 109.03 332.756 114 323h2l.746-1.754c4.936-8.84 15.605-14.39 25.004-17.058 15.077-3.38 27.011-.503 40.25 6.812l3 2v2h2v2h2l.563 2.375c1.277 3.019 1.277 3.019 5.062 3.938L198 324v4h2l1 6 4 1c-.184 1.84-.184 1.84-1 4-2.098 1.316-2.098 1.316-5.062 2.563l-3.563 1.542-2.066.885c-2.623 1.147-5.216 2.35-7.809 3.56-18.436 8.606-36.747 16.34-56.356 21.844a365 365 0 0 0-5.703 1.676l-2.941.868-2.406.714c-2.446.406-3.816.338-6.094-.652-1.266-1.742-1.266-1.742-2.25-3.875l-1.016-2.117C108 364 108 364 108 361l-1.922.984c-4.164 1.374-7.973 1.307-12.328 1.266l-2.45.023c-8.208-.026-15.81-.864-22.3-6.273-3.23-4.677-4.718-8.3-4-14 2.491-9.544 7.572-17.858 13-26h2l.637-2.098c1.782-3.793 4.283-6.349 7.176-9.34q1.574-1.652 3.144-3.308l1.553-1.634c1.44-1.565 2.795-3.171 4.138-4.82 1.96-2.333 3.832-4.24 6.165-6.175 3.738-3.17 7.143-6.573 10.523-10.121C115 278 115 278 117 278v-2a134 134 0 0 1 6.188-4.937c5.126-3.945 10.18-7.955 15.124-12.125L140 257.53c2.919-2.417 2.919-2.417 5.001-5.53"/><path fill="#DBA0F1" d="m264 71 2.078.038c30.147.728 67.826 10.917 90.313 32.228L358 105l-2 4c-3.444-1.983-6.513-4.161-9.625-6.625-18.236-13.287-48.267-25.932-71.191-23.008-22.38 4.449-43.625 14.81-57.375 33.633-11.255 17.427-16.016 36.41-12.196 57.086 2.962 10.777 9.641 20.32 19.387 25.914 12.372 6.867 25.24 10.607 38.878 14.17 4.834 1.285 9.633 2.684 14.435 4.08 5.228 1.515 10.431 2.951 15.75 4.125 13.661 3.327 26.836 9.559 38.937 16.625l-1 2h-2v2c-3.52-1.35-6.918-2.887-10.318-4.513-6.133-2.934-12.151-5.54-18.682-7.487l-1 3c-4.866-.997-9.403-2.085-14-4a104 104 0 0 0-5-1v-2l-1.738.59c-2.7.49-3.946.03-6.45-1.028-2.332-1.107-2.332-1.107-4.812-1.562q-1.53-1.47-3-3l-2 1-1.152-1.375c-2.337-2.055-4.445-2.697-7.41-3.625l-3.27-1.047a160 160 0 0 0-5.617-1.594C229.53 207.116 214.029 198.155 205 184c-6.69-13.82-9.43-29.116-5.445-44.156.558-2.31.598-4.48.445-6.844-3.14 1.608-3.14 1.608-3.5 4-.5 2-.5 2-3.5 4v-3h2v-2l-3-1 2-2-6-1-.312-1.812c-.777-2.47-1.759-3.51-3.688-5.188l-3 1-1-2-2 1c.38-5.706.6-8.133 5-12a93 93 0 0 0 2-5c-9.564 3.754-18.7 7.696-27.617 12.828C155 122 155 122 152 122l-2 4h-2l-3 2-2-1-.75 2.125C141 132 141 132 139.117 134.535c-2.85 4.21-3.941 8.915-5.242 13.778l-.762 2.724C131.561 156.657 130.22 162.3 129 168l-4 1c-1.757-16.591 6.334-35.546 16.269-48.677 2.728-3.288 5.725-6.292 8.731-9.323a385 385 0 0 0 3.375-4.125c19.692-22.434 54.5-33.456 83.438-35.562 9.062-.435 18.117-.496 27.187-.313"/><path fill="#B857E0" d="M274 80c-3.608 1.857-7.315 3.382-11.074 4.902-2.267 1.009-2.267 1.009-2.926 4.098h-2l-.75 2.313C256 94 256 94 254.125 95.313c-3.21 2.548-4.478 6-6.125 9.687h-2v5h-2c-1.106 2.39-1.106 2.39-2 5l1 2c-1 2-1 2-2 3l5 3 2-2v2c3.122-1.309 3.122-1.309 5-4l2 2 2-3 4 1v-2l3.313.5c3.562.567 3.562.567 6.687.5l2-2c2.935.367 3.864.864 6 3l2-2c2.125.375 2.125.375 4 1l-1-4h2l1 2 2-2h2l3-1 3 1c3.865.168 7.23-.226 11-1a100 100 0 0 1 5 0c2.621 0 4.51-.313 7-1v2l2.5-.5c5.482-.783 11.134-1.126 16.5.5l1 2 2.938 1.188c9.361 3.883 16.24 9.886 21.062 18.812 2.119 5.198 2.382 10.463 2 16l-2 2c-2.36-2.36-2.38-3.336-2.875-6.562-1.26-6.8-3.319-14.169-9.125-18.438-3.134-1.268-3.134-1.268-6-2v-2h-2v-2q-2.718-.29-5.437-.562l-3.06-.317L333 122l-1 1c-3.416.131-6.424.144-9.75-.687L320 122l-1.5 1.5-1.5 1.5c-2.437-.25-2.437-.25-5-1l-2.312-.562L308 123l-2 4-6-4-2 1-2-2-1.898.691-2.477.871-2.46.88C287 125 287 125 285 124v2l2 1-4 1v-2l-3.25 1.438-1.945.808a98 98 0 0 0-3.93 1.754c-1.875 0-1.875 0-4.625-2.437L267 125c-2.158.947-2.158.947-4 3v3l2.875-.062C269 131 269 131 271 132v3l2.633.734c11.446 3.33 11.446 3.33 16.367 7.266-2 2-2 2-5.312 2.25-3.688-.25-3.688-.25-5.805-1.258-4.226-1.454-8.263-1.203-12.695-1.117l-2.678.027c-2.17.024-4.34.06-6.51.098.793 2.17.793 2.17 2.848 2.633l2.214.492 2.223.508L266 147v2l3 1-2.527-.219c-3.49-.288-6.98-.538-10.473-.781l-2.305-.207c-9.53-.5-21.946 2.115-29.21 8.512-3.582 4.09-5.647 8.294-5.985 13.757.744 5.86 2.633 9.368 7.25 13.25L228 186v2h2v2c.58.182 1.16.364 1.758.55.781.252 1.562.504 2.367.762l2.32.739C239 193 239 193 241.69 194.436c3.542 1.674 7.029 2.663 10.822 3.544l4.444 1.076 2.338.558C284.276 205.598 308.541 212.34 332 223l2.413 1.045c2.2 1.002 2.2 1.002 5.587 2.955.712 2.122.712 2.122 1 4l-6 5c-3.945-1.484-7.695-3.279-11.48-5.122-14.26-6.91-28.201-11.383-43.566-15.154C223.718 201.887 223.718 201.887 211 184c-8.16-13.591-9.777-31.114-6.09-46.516 3.632-11.352 9.28-21.5 17.09-30.484l2.105-2.43C236.127 91.642 255.82 79.587 274 80"/><path fill="#E8D5BA" d="M383 133c24.218-.588 24.218-.588 31.758 6.465 3.313 4.094 2.693 9.586 2.242 14.535-3.01 15.945-16.98 29.817-28 41l-2.105 2.163C378.303 205.98 369.723 214.433 360 222a467 467 0 0 0-4.062 3.563C353 228 353 228 351 228v2l-3 2 1 3 2.375.875c3.301 1.415 3.932 3.046 5.625 6.125l-2.082 1.645-2.73 2.167-2.708 2.145c-2.38 1.883-2.38 1.883-3.957 3.563-2.162 2.1-4.59 3.666-7.086 5.355a512 512 0 0 0-13.919 9.843 471 471 0 0 1-26.28 17.865c-2.408 1.524-4.81 3.058-7.21 4.593L286 292.375l-2.318 1.479a374 374 0 0 1-11.483 7.001l-2.138 1.255c-4.53 1.956-8.645.41-13.123-1.235-5.194-1.547-8.282-.754-12.946 1.723a309 309 0 0 0-6.32 3.808C235 308 235 308 232 309l-2 2a165 165 0 0 1-5.5 3.125l-2.969 1.633C219 317 219 317 217 317l-1 2c-1.55.961-1.55.961-3.527 1.945l-2.15 1.075-2.26 1.105-2.249 1.129C200.267 327 200.267 327 198 327v-3c-1.145.03-1.145.03-2.312.063C193 324 193 324 190 323l1-4 2 2c4.932-.257 9.122-2.955 13.375-5.25l2.458-1.312c6.969-3.744 13.889-7.576 20.792-11.438l3.072-1.708 2.842-1.604 2.538-1.426c2.063-1.124 2.063-1.124 2.923-3.262l2.5-.277c4.907-1.014 8.366-3.537 12.5-6.286q2.544-1.654 5.094-3.3l2.523-1.632c3.23-2.04 6.54-3.91 9.883-5.755 5.083-2.858 9.737-5.987 14.395-9.488 3.931-2.864 7.98-5.526 12.043-8.2 7.23-4.776 14.192-9.776 21.062-15.062q3.185-2.362 6.379-4.71c1.668-1.276 1.668-1.276 3.187-2.868C332 236 332 236 334.375 234.625c3.028-1.875 5.107-4.1 7.625-6.625 2.36-2.147 4.769-4.233 7.188-6.312l1.904-1.667C355.762 216 355.762 216 358 216v-2a97 97 0 0 1 4.82-3.96c6.072-4.862 11.578-10.14 17.055-15.665l2.758-2.734c3.749-3.76 7.362-7.405 10.375-11.79L395 177h2l.719-1.57c2.047-3.883 4.555-7.483 7.004-11.121 4.125-6.277 6.006-11.776 5.277-19.309-1.825-2.636-3.011-3.72-6.094-4.594-3.92-.548-7.766-.512-11.719-.469l-2.388.014q-2.9.02-5.799.049l-1 9h-1a620 620 0 0 1-.062-4.625l-.036-2.602c.106-2.996.55-5.828 1.098-8.773"/><path fill="#833AB1" d="M217.137 341.934 219 343l1.832 1.035c1.668 1.027 1.668 1.027 4.168 2.965v2c-5.75 3-5.75 3-8 3v2l1.598.375c4.117 1.071 8.154 2.409 12.21 3.688 15.067 4.425 33.349 3.794 47.258-3.72 4.201-1.923 6.483-1.187 10.934-.343v2h-2l-.258 1.805c-.954 2.824-2.196 3.626-4.617 5.32l-2.117 1.508C275.063 368 275.063 368 272 368v2c-5.975 1.947-11.717 3.48-18 4l-3.059.277C226.44 376.425 226.44 376.425 216 370l-3-1v-2l-3-1 4-4-2.52.254-3.292.308-3.27.317C202 363 202 363 199 362c-2 .516-2 .516-4.098 1.477l-2.431 1.035-2.534 1.113-2.45 1.043a195 195 0 0 0-12.233 5.754c-6.247 3.161-12.734 5.667-19.254 8.203l-3.656 1.445c-6.09 2.384-12.129 4.588-18.453 6.267-2.1.583-2.1.583-3.891 2.663h-4l1 3h-2v-2l-4.25.938-2.39.527c-1.4.317-2.796.648-4.184 1.008-3.895.944-7.841 1.66-11.776 2.422-2.876.565-5.615 1.177-8.4 2.105h-7l-3.691.508C70.065 401.225 57.249 399.5 46 392v-2h-2a495 495 0 0 1-2.973-5.207c-1.028-1.846-1.028-1.846-2.34-3.73-1.14-3.423-.274-6.54.313-10.063 2.11 2.68 3.73 5.326 5.25 8.375 3.925 6.97 7.559 10.212 15.395 12.46C66.824 393.677 73.579 394.65 81 394l3.82-.32c8.585-.828 16.909-2.34 25.292-4.359C113.544 388.5 116.446 388 120 388l-2-3.25c-1.883-3.06-2-3.884-2-7.75l3.496-.996c13.154-3.813 26.016-8.276 38.858-13.029 2.1-.773 4.205-1.528 6.314-2.276 10.285-3.736 20.043-8.734 29.86-13.542 2.458-1.15 4.95-2.155 7.472-3.157l2.176-1.176c4.966-2.642 7.808-3.358 12.96-.89"/><path fill="#A452CD" d="M185 313v2h2v2h2l.875 2.375c.974 2.722.974 2.722 3.125 4.625-25.903 15.03-55.527 26.632-85 32-1.315-10.99-1.486-18.982 4-29q1.005-1.998 2-4h2l.746-1.754c4.936-8.84 15.605-14.39 25.004-17.058 16.062-3.602 29.711-.214 43.25 8.812"/><path fill="#6F2FA2" d="M356.375 270.25 358 271c-1.098 2.993-1.677 3.846-4.625 5.25L351 277v2c-1.574 1.148-1.574 1.148-3.687 2.375-2.52 1.504-4.714 2.951-7 4.813-2.363 1.851-4.487 2.843-7.313 3.812v2a105 105 0 0 1-5 4l.875 1.68 1.125 2.195 1.125 2.18C332 304 332 304 332 306l3-1v-2c3.22-1.073 3.904-.87 7 0h3l3 2 1.688-1c2.764-1.195 4.326-1.437 7.312-1 2.625 1.938 2.625 1.938 5 4l3 1h-2c-.268 4.817.888 7.26 3.438 11.25 1.96 3.451 3.237 7.018 4.562 10.75 1.196 3.643 1.196 3.643 3.688 6.375C376 338 376 338 375.688 341.25L375 345a193 193 0 0 0 0 7h2l.438-3.75c.349-2.815.766-5.52 1.562-8.25h2c-.984 6.56-2.333 12.904-5 19h-2l-1 2c-.544-3.058-1-5.888-1-9l-2-1v-4l-2-2c-.618-2.58-1.017-5.165-1.437-7.785L366 335l-2-1a506 506 0 0 1-2-6c-1.952-1.952-3.532-2.848-6-4l-2.75 2.063C350 328 350 328 348 327.813l-2-.813a447 447 0 0 0-6-1l-1 7h-3l-3-23-2 6c-5.625.25-5.625.25-9-2-3.142.315-3.142.315-6 1l-.375 1.75c-.64 2.301-1.418 4.191-2.625 6.25l-2 1c-.47 3.046-.47 3.046-.625 6.563l-.227 3.628L310 337h-2v6l-3 1-.332 3.148C302.84 363.628 298.045 380.075 287 393h-2v2l-4 1c.375-1.937.375-1.937 1-4l2-1a467 467 0 0 0 2-6c1.21-2.605 2.548-5.14 3.875-7.687 8.53-16.711 12.939-35.143 7.375-53.688-1.68-4.736-3.96-9.16-6.25-13.625l1.769-1.082q4.055-2.487 8.106-4.98l2.781-1.702c5.552-3.42 10.872-6.992 16.06-10.949 2.684-1.513 4.253-1.352 7.284-1.287 2.002-.885 2.002-.885 3.813-2.23l2.07-1.436 2.117-1.522 2.117-1.462A72.4 72.4 0 0 0 348 274c5.259-4.078 5.259-4.078 8.375-3.75"/><path fill="#DEC9AC" d="m417.25 116.688 3.39-.05c9.322-.005 16.263 1.724 23.66 7.64 4.07 4.124 4.846 8.972 5.075 14.597-.476 12.53-7.033 25.175-14.375 35.125h-2l-.695 2.125c-1.563 3.444-3.715 6.056-6.18 8.875-.48.557-.96 1.115-1.453 1.69-5.407 6.239-10.997 12.315-16.672 18.31l-2.223 2.371C404 209 404 209 402 209v2h-2v2h-2v2c-1.68 1.727-1.68 1.727-3.875 3.625l-2.18 1.914C390 222 390 222 388 222l-1 3c-3.444 3-3.444 3-6 3v2a151 151 0 0 1-6.687 5.375l-3.762 2.898-1.851 1.416a237 237 0 0 0-4.25 3.374c-2.907 2.299-5.92 4.431-8.95 6.562a375 375 0 0 0-14.062 10.438c-10.392 8.08-21.4 15.285-32.362 22.559-3.82 2.537-7.635 5.083-11.451 7.628l-6.45 4.298a1079 1079 0 0 0-4.592 3.084l-2.403 1.618-2.173 1.469c-2.567 1.638-5.286 2.92-8.007 4.281l-1 2h-2l-1 2a816 816 0 0 1-5 2 305 305 0 0 0-8.447 5.254C252.203 319 252.203 319 250 319l-1 2a157 157 0 0 1-6.812 3.688 345 345 0 0 0-17.504 9.769C216.782 339 216.782 339 214 339v2h-2c1-3 1-3 3.063-4.187L217 336c-3.478-1.16-5.459-.708-9 0a60.3 60.3 0 0 1 8.238-5.418l2.463-1.35 2.612-1.42 2.703-1.48q7.014-3.832 14.088-7.555c6.52-3.43 12.798-7.127 19.04-11.035 2.895-1.766 5.817-3.306 8.868-4.777C276.556 297.848 286.244 291.45 296 285l2.935-1.936q4.724-3.12 9.44-6.252l2.987-1.978a464 464 0 0 0 17.152-12.011 533 533 0 0 1 9.548-6.823l1.678-1.191C343.767 252 343.767 252 346 252l.742-1.797c1.468-2.57 2.98-3.748 5.383-5.453l2.195-1.578L356 242l-1-3 2.238-.277c3.206-.84 4.576-2.013 6.95-4.286C367.805 231 367.805 231 370 231v-2c1.73-1.523 1.73-1.523 4.188-3.375 5.128-3.977 9.842-8.276 14.52-12.763C392.79 209 392.79 209 395 209v-2h2v-2h2v-2h2v-2c2.375-2.625 2.375-2.625 5-5h2v-2h2l.723-1.7c1.56-2.809 3.488-4.793 5.714-7.113 4.137-4.473 7.894-9.089 11.5-14l1.395-1.884c2.627-3.626 4.74-7.245 6.668-11.303l1.352-2.316c3.8-6.703 4.987-12.987 4.648-20.684-1.19-3.99-2.412-5.457-5.437-8.25-13.317-6.541-29.507-3.545-43.5-.812l-2.64.514c-4.683.828-4.683.828-8.423 3.548-2.429-6.286-2.429-6.286-1-10l1 2 1.766-.586c11.1-3.525 21.862-4.76 33.484-4.727"/><path fill="#4D1678" d="m253.313 138.813 2.724-.038c5.957-.013 11.193.737 16.963 2.225v2h-16c.793 2.17.793 2.17 2.848 2.633l2.214.492 2.223.508L266 147v2l3 1-2.527-.219c-3.49-.288-6.98-.538-10.473-.781l-2.305-.207c-9.53-.5-21.946 2.115-29.21 8.512-3.582 4.09-5.647 8.294-5.985 13.757.744 5.86 2.633 9.368 7.25 13.25L228 186v2h2v2c.58.182 1.16.364 1.758.55.781.252 1.562.504 2.367.762l2.32.739C239 193 239 193 241.69 194.436c3.542 1.674 7.029 2.663 10.822 3.544l4.444 1.076 2.338.558C284.276 205.598 308.541 212.34 332 223l2.413 1.045c2.2 1.002 2.2 1.002 5.587 2.955.712 2.122.712 2.122 1 4l-6 5c-3.945-1.484-7.695-3.279-11.48-5.122-14.26-6.91-28.201-11.383-43.566-15.154C224.66 202.119 224.66 202.119 211 184l-1.32-1.75c-3.109-4.695-3.522-8.84-2.68-14.25 2.139-8.867 7.604-15.852 14.79-21.375 10.02-6.079 20.023-7.804 31.523-7.812"/><path fill="#3D0D64" d="M119 152h2v4h-2l1 5h2l1-2c.975 3.287 1.151 6.313 1.21 9.734.697 29.959 5.69 55.965 28.142 77.595 5.75 5.365 11.806 9.789 18.648 13.671l3.39 1.957c21.069 11.867 44.45 17.9 67.762 23.684l3.352.843 2.994.742C251 288 251 288 254 290c-8.26 6.424-8.26 6.424-13.312 6.5-3.3-.447-4.903-.883-7.688-2.5a321 321 0 0 0-7-2c-23.614-6.546-47.074-13.51-67.266-27.871-1.849-1.307-1.849-1.307-4.734-2.129-1.844-1.947-3.495-4.008-5.184-6.09-1.86-1.957-3.424-2.739-5.816-3.91a250 250 0 0 1-4-6l-3-2a259 259 0 0 1-3-5 302 302 0 0 0-3-3.937c-2.445-3.202-4.264-6.418-6-10.063l-2-2c-2.117-5.58-3.677-11.294-5.187-17.062l-.543-2.001c-1.207-4.755-1.429-9.032-1.27-13.937h2l-.254-2.246c-.636-6.574-.8-12.982-.433-19.566l.105-2.098c.318-4.892 1.285-9.362 2.582-14.09"/><path fill="#AA75C6" d="M346.625 232.875 349 233v2l2.313.688c3.254 1.589 3.973 3.202 5.687 6.312l-2.082 1.645-2.73 2.167-2.708 2.145c-2.38 1.883-2.38 1.883-3.957 3.563-2.162 2.1-4.59 3.666-7.086 5.355a512 512 0 0 0-13.919 9.843 471 471 0 0 1-26.28 17.865c-2.408 1.524-4.81 3.058-7.21 4.593L286 292.375l-2.318 1.479a354 354 0 0 1-11.495 6.994l-2.144 1.25c-3.541 1.564-6.446 1.06-10.043-.098-3.072-1.2-6.048-2.53-9-4 2.106-2.252 4.202-3.87 6.844-5.453l2.26-1.365 2.396-1.432q2.472-1.495 4.941-2.992l2.403-1.452c10.185-6.17 19.966-12.913 29.768-19.666a1247 1247 0 0 1 6.712-4.574c7.393-5.018 14.582-10.2 21.621-15.703 3.903-3.019 7.896-5.901 11.91-8.77 4.883-3.628 4.883-3.628 6.77-3.718"/><path fill="#B285C9" d="M452 115v2h2c3 5.75 3 5.75 3 8h2c4.907 8.872 5.258 16.123 2.51 25.867-4.323 14.11-11.558 25.592-20.242 37.403a209 209 0 0 0-3.006 4.23L437 194h-2l-.719 1.64c-1.624 2.993-3.631 5.472-5.781 8.11l-2.406 2.984L424 209h-2v2h-2v2h-2v2h-2v2h-2l-1 3c-1.742 1.79-1.742 1.79-3.875 3.625l-2.117 1.852C405 227 405 227 402 228v2h-2v2c-5.476 5-5.476 5-8 5v2c-1.61 1.48-3.291 2.885-5 4.25l-3.023 2.434a182 182 0 0 1-9.516 6.93c-1.788 1.697-2.082 2.986-2.461 5.386l-2.25-.125c-3.084-.046-3.084-.046-6.75 2.125l-9-9c4.32-4.68 4.32-4.68 7.125-6 1.875 0 1.875 0 3.625 1.313C366 248 366 248 366 250c4.04-.569 6.313-2.66 9.375-5.25l2.926-2.45a1120 1120 0 0 0 4.68-4.007C386.823 235 386.823 235 389 235v-2h2v-2h2v-2c1.393-1.2 2.845-2.33 4.313-3.437 5.929-4.73 11.27-9.946 16.625-15.313l2.51-2.51c4.545-4.575 4.545-4.575 8.687-9.51L427 196h2l.938-1.875L432 190h2l.797-2.238c1.206-2.77 2.528-4.64 4.453-6.95 9.68-12.165 18.462-27.5 18.07-43.48-.91-6.634-3.821-12.426-8.32-17.332-16.168-10.787-35.214-8.715-53.371-5.402C393 115 393 115 389 115l-1 2q-3.499.509-7 1l-2 2c-3-5.625-3-5.625-3-9l1.492.586c3.674.607 7.034-.227 10.633-.961l2.207-.422c3.947-.748 3.947-.748 7.668-2.203 2.876-.4 5.74-.75 8.625-1.062l2.371-.276c15.064-1.661 30.087-.273 43.004 8.338"/><path fill="#7631A2" d="m200 328 1 6 4 1c-.184 1.84-.184 1.84-1 4-2.098 1.316-2.098 1.316-5.062 2.563l-3.563 1.542-2.066.885c-2.623 1.147-5.216 2.35-7.809 3.56-18.436 8.606-36.747 16.34-56.356 21.844a365 365 0 0 0-5.703 1.676l-2.941.868-2.406.714c-2.454.408-3.825.39-6.094-.652-1.047-1.96-1.047-1.96-1.75-4.375l-.734-2.398C109 363 109 363 109 360l1.978-.531c11.567-3.127 23.084-6.319 34.397-10.281l2.517-.878c3.395-1.214 6.08-2.291 9.108-4.31l3.625-1.125c4.735-1.52 9.144-3.555 13.625-5.687l2.218-1.053q5.205-2.482 10.38-5.026l3.464-1.671 3.051-1.504c2.792-.989 3.928-1.009 6.637.066"/><path fill="#50137F" d="M253 142c19.271-1.317 31.385 1.25 46.188 13.688 3.76 3.28 7.31 6.76 10.812 10.312-6.036 4.924-6.036 4.924-10.016 5.238-5.16.69-9.29 3.38-13.734 5.95l-5.355 3.023-2.572 1.468a454 454 0 0 1-8.385 4.633 776 776 0 0 0-7.97 4.38l-3.03 1.683-2.723 1.523C254 195 254 195 252 195v3a478 478 0 0 1-4.875-.875l-2.742-.492C242 196 242 196 240 194c2.906-1.257 4.796-2 8-2v-2l1.805-.887c6.437-3.188 12.77-6.538 19.07-9.988l2.905-1.585c6.133-3.358 12.195-6.802 18.173-10.43C292 166 292 166 294 166l-1-2c-4.507.628-8.24 2.392-12.25 4.438l-2.083 1.046c-6.22 3.18-12.223 6.702-18.17 10.365C255.312 183 255.312 183 252 183v2l-1.793.988-2.394 1.325-2.493 1.37a84 84 0 0 0-5.132 3.192c-2.188 1.125-2.188 1.125-4.25 1-2.245-1.014-3.991-2.377-5.938-3.875 16.81-9.972 16.81-9.972 25.129-14.441 3.646-1.98 7.258-4.019 10.871-6.059a1177 1177 0 0 1 19-10.5l-4-2v-2l-2.266-.586-2.984-.789-2.953-.773A34.6 34.6 0 0 1 266 149v-2l-3.687-.25c-4.14-.28-6.234-2.053-9.313-4.75"/><path fill="#973FD0" d="M255 86c-1.5 3.117-3.062 6.131-5 9l-3 1-2-1-.812 2.313c-1.18 2.67-2.16 3.688-4.188 5.687-1.32 1.83-2.568 3.696-3.816 5.574L235 110h-2l-.75 1.938a217 217 0 0 1-3.25 7.5c-2.113 4.742-3.729 9.361-4.875 14.437-.901 3.77-2.44 6.915-4.262 10.32-1.001 1.864-1.001 1.864-1.238 4.368-.703 2.74-1.537 3.586-3.437 5.625-4.986 5.489-7.416 12.482-8.188 19.812-5.748-8.622-4.23-24.563-2.602-34.41 2.908-12.123 9.483-23.25 17.602-32.59l2.105-2.43C228.9 99.416 247.12 82.06 255 86"/><path fill="#360E57" d="M185 313v2h2v2h2l.875 2.375c.974 2.722.974 2.722 3.125 4.625-2.75 1.625-2.75 1.625-6 3-3.262-1.198-5.856-3.31-8.625-5.375-9.2-6.523-19.09-9.694-30.375-8.625-10.299 2.032-18.523 7.196-24.95 15.527-5.19 8.157-6.311 15.988-7.05 25.473l-8 2c-1.315-10.99-1.486-18.982 4-29q1.005-1.998 2-4h2l.746-1.754c4.936-8.84 15.605-14.39 25.004-17.058 16.062-3.602 29.711-.214 43.25 8.812"/><path fill="#310A52" d="M291.027 311.219c2.975 1.178 3.94 3.399 5.203 6.215 2.556 8.521 1.212 16.49-2.816 24.265-1.83 2.98-3.698 5.09-6.414 7.301l-1.777 1.484c-10.272 8.217-21.327 10.911-34.286 10.891l-3.062-.003c-11.227-.176-20.633-2.859-30.875-7.372v-2c5.995-3.806 10.097-4.514 17-3l2.043.527c13.743 3.533 25.005 1.061 37.957-3.527a90 90 0 0 1 4-1v-2l5-5c3.535-4.145 3.428-8.173 3.309-13.406-.372-3.12-1.49-5.062-3.309-7.594 1-3 1-3 3.313-4.75C289 311 289 311 291.027 311.219"/><path fill="#ECDBBE" d="m348 248 6 1v2c-1.809 1.523-1.809 1.523-4.437 3.375l-3.04 2.156L343 259q-2.013 1.42-4.023 2.844a4495 4495 0 0 1-8.692 6.129c-3.317 2.337-6.614 4.7-9.905 7.074-5.386 3.882-10.839 7.596-16.474 11.11-3.493 2.215-6.915 4.529-10.344 6.843a233 233 0 0 1-17.367 10.625c-2.318 1.187-2.318 1.187-3.195 3.375h-2l-1 2a816 816 0 0 1-5 2 305 305 0 0 0-8.447 5.254C252.203 319 252.203 319 250 319l-1 2a157 157 0 0 1-6.812 3.688 345 345 0 0 0-17.504 9.769C216.782 339 216.782 339 214 339v2h-2c1-3 1-3 3.063-4.187L217 336c-3.478-1.16-5.459-.708-9 0a60.3 60.3 0 0 1 8.238-5.418l2.463-1.35 2.612-1.42 2.703-1.48q7.014-3.831 14.088-7.555c6.52-3.43 12.798-7.127 19.04-11.035 2.895-1.766 5.817-3.306 8.868-4.777C276.556 297.848 286.244 291.45 296 285l2.935-1.936q4.724-3.12 9.44-6.252l2.987-1.978a464 464 0 0 0 17.152-12.011 533 533 0 0 1 9.548-6.823l1.678-1.191C343.767 252 343.767 252 346 252z"/><path fill="#61228C" d="m195 347 2 1-9 5v3c2.676 2.185 2.676 2.185 5 2l1-2h5c-2.739 2.987-5.113 4.767-8.828 6.367l-2.94 1.277L184 365l-3.498 1.474a1971 1971 0 0 1-11.252 4.651l-5.768 2.374-5.2 2.138a441 441 0 0 0-6.896 2.936c-4.383 1.847-8.832 3.2-13.386 4.552-.864.264-1.727.529-2.617.8-4.782 1.432-9.394 2.708-14.383 3.075-2.375-1.562-2.375-1.562-4-4-.38-1.992-.719-3.992-1-6l3.496-.996c13.15-3.812 26.01-8.273 38.85-13.025a664 664 0 0 1 6.392-2.315c8.022-2.934 15.644-6.644 23.283-10.45.873-.43 1.747-.858 2.647-1.3l2.384-1.189zm-17.75 10-3.25 2c3.508 2.339 5.817 2.776 10 3 1.964-1.293 1.964-1.293 3-3l-2-4c-3.866 0-4.69.117-7.75 2"/><path fill="#732FA3" d="M300.707 267.04c2.43 1.017 4.126 2.101 6.106 3.835l1.832 1.555C310 274 310 274 310 277c-1.911 1.469-3.756 2.7-5.812 3.938l-3.844 2.386-2.11 1.295a570 570 0 0 0-7.078 4.463l-4.969 3.168-2.348 1.5c-3.848 2.436-7.724 4.819-11.663 7.105l-2.14 1.247c-3.537 1.56-6.444 1.055-10.036-.102-3.072-1.2-6.048-2.53-9-4 2.106-2.252 4.202-3.87 6.844-5.453l2.26-1.366 2.396-1.431 4.926-2.98c.792-.48 1.584-.958 2.4-1.451 5.777-3.505 11.475-7.11 16.998-11.003l2.03-1.41q1.98-1.378 3.934-2.795c2.723-1.886 4.55-3.12 7.919-3.072"/><path fill="#D0B0D8" d="M132 238c2 1.375 2 1.375 4 3v2c-1.898 1.727-1.898 1.727-4.375 3.625l-2.46 1.914C127 250 127 250 125 250v2a105 105 0 0 1-6 5l-2.11 1.66C111.269 263 111.269 263 109 263v2h-2v2h-2v2c-1.526 1.345-3.113 2.62-4.723 3.863-6.104 4.888-11.638 10.193-17.141 15.74a981 981 0 0 1-4.79 4.778l-3.092 3.1c-.915.916-1.83 1.833-2.771 2.778-1.848 2.04-3.235 3.8-4.686 6.086L66 308h-2v2h-2l-.773 2.227c-1.291 2.919-2.75 4.761-4.852 7.148C46.813 331.062 40.247 344.685 41 360l-2 1v-10l-2 1a560 560 0 0 0-.062 4.313l-.036 2.425c.001 2.43.001 2.43 1.098 5.262l-1 2-2-1c-.445-9.853-.358-17.929 4-27l1.719-3.61C46.152 323.214 46.152 323.214 49 319h2l.875-1.75L55 311h2l2-5h2l.676-1.637c1.751-3.125 4.071-5.585 6.511-8.175l1.568-1.679c4.393-4.67 8.864-9.262 13.37-13.822l1.973-2.012 1.847-1.85 1.641-1.654C90 274 90 274 92 274l.703-1.75c1.62-2.811 3.49-4.253 6.047-6.25a383 383 0 0 0 13.188-11c5.422-4.703 11.01-9.06 16.832-13.258 2.313-1.55 2.313-1.55 3.23-3.742"/><path fill="#A068BF" d="m177 367 2 4q-6.42 2.649-12.848 5.28-2.175.89-4.349 1.789c-8.878 3.664-17.75 7.02-26.922 9.881-2.963.85-2.963.85-4.881 3.05h-4l1 3h-2v-2l-4.25.938-2.39.527c-1.4.317-2.796.648-4.184 1.008-3.895.944-7.841 1.66-11.776 2.422-2.876.565-5.615 1.177-8.4 2.105h-7l-3.691.508C70.065 401.225 57.249 399.5 46 392v-2h-2a495 495 0 0 1-2.973-5.207c-1.028-1.846-1.028-1.846-2.34-3.73-1.14-3.423-.274-6.54.313-10.063 2.11 2.68 3.73 5.326 5.25 8.375 3.925 6.97 7.559 10.212 15.395 12.46C66.824 393.677 73.579 394.65 81 394l3.82-.32c8.585-.828 16.909-2.34 25.292-4.359C113.544 388.5 116.446 388 120 388l1-2c2.122-.519 2.122-.519 4.883-.922 5.851-.971 11.356-2.5 16.992-4.328l2.901-.93c6.384-2.097 12.406-4.5 18.439-7.465 4.166-2.027 8.462-3.696 12.785-5.355"/><path fill="#8337B1" d="M163 332c2.664.515 5.295.73 8 1l1-3 5 1c-2.966 2.4-5.869 3.96-9.375 5.453l-3.207 1.368L161 339.25l-3.514 1.474C129.04 352.534 129.04 352.534 116 354c-.505-8.783.28-16.982 6-24 2.007 6.272.983 11.928-1 18h4l.5-2.937c1.744-6.03 6.258-10.693 11.242-14.336 7.078-3.43 19.476-2.49 26.258 1.273"/><path fill="#CEB197" d="M383 133c24.218-.588 24.218-.588 31.758 6.465 3.313 4.094 2.693 9.586 2.242 14.535-2.85 15.098-15.375 28.686-27 38l-2-1c-2.062 1.812-2.062 1.812-4 4v3l-6 1c5.511-6.54 5.511-6.54 8.125-9 2.125-2.266 3.447-4.606 4.934-7.316 1.15-2.059 2.382-3.912 3.941-5.684h2l.719-1.57c2.047-3.883 4.555-7.483 7.004-11.121 4.125-6.277 6.006-11.776 5.277-19.309-1.825-2.636-3.011-3.72-6.094-4.594-3.92-.548-7.766-.512-11.719-.469l-2.388.014q-2.9.02-5.799.049l-1 9h-1a620 620 0 0 1-.062-4.625l-.036-2.602c.106-2.996.55-5.828 1.098-8.773"/><path fill="#D6BCA1" d="m145 252 6 5-1.937 1.5c-3.48 2.84-6.772 5.85-10.075 8.89C137 269 137 269 135 269v2c-1.407 1.248-2.879 2.423-4.375 3.563-4.723 3.668-9.131 7.567-13.496 11.652C115 288 115 288 112 289v2c-1.574 1.516-1.574 1.516-3.687 3.25-2.666 2.25-5.023 4.45-7.188 7.188L99 304h-2v2h-2l-.812 1.75c-1.217 2.306-2.491 4.27-4.188 6.25h-2v2l-1.812-.5c-2.301-.611-2.301-.611-5.188-.5 1.628-3.979 4.4-6.803 7.313-9.875 2.853-3.036 5.67-6.066 8.304-9.297 1.972-2.34 3.852-4.26 6.195-6.203 3.739-3.17 7.144-6.573 10.524-10.121C115 278 115 278 117 278v-2a134 134 0 0 1 6.188-4.937c5.126-3.945 10.18-7.955 15.124-12.125L140 257.53c2.919-2.417 2.919-2.417 5.001-5.53"/><path fill="#6F2AA0" d="M315.17 279.251c3.254 1.331 4.728 4.005 6.83 6.749-10.126 8.287-21.028 15.69-32.633 21.746a84 84 0 0 0-5.047 2.922C282 312 282 312 280 311.875c-2.48-1.085-4.721-2.42-7-3.875.191-1.812.191-1.812 1-4 2.09-1.5 2.09-1.5 4.938-3 5.605-3.104 10.934-6.485 16.25-10.062l2.228-1.499 2.19-1.474 2.173-1.454a203 203 0 0 0 4.634-3.253l2.388-1.692 2.15-1.56C313 279 313 279 315.17 279.251"/><path fill="#C4A38C" d="M200 330h2v2l1.938.938C206 334 206 334 207 335c2.308-.221 4.58-.585 6.871-.941.703-.02 1.405-.04 2.129-.059l2 2c-5.177 3.627-10.098 6.66-16 9a534 534 0 0 0-16.812 7.797c-14.434 6.926-28.943 12.525-44.226 17.28a695 695 0 0 0-8.005 2.552c-5.626 1.81-11.09 3.519-16.957 4.371l-1 3-.375-2.437L114 375l-2-1 1-2c1.836-.422 1.836-.422 4.375-.75 25.42-4.22 50.454-16.49 73.625-27.25l5.377-2.478Q200.19 339.763 204 338v-3l-3-1c-.687-2.062-.687-2.062-1-4"/><path fill="#D2B1D8" d="M452 115v2h2c3 5.75 3 5.75 3 8h2c3.75 6.781 4.518 12.305 4 20h-1l-.184-2.117-.253-2.758-.247-2.742c-.186-2.394-.186-2.394-1.316-4.383l-2 3-1.137-2.45c-4.794-10.01-9.36-15.553-19.863-19.55-13.796-3.485-27.546-1.924-41.371.598C393 115 393 115 389 115l-1 2q-3.499.509-7 1l-2 2c-3-5.625-3-5.625-3-9l1.492.586c3.674.607 7.034-.227 10.633-.961l2.207-.422c3.947-.748 3.947-.748 7.668-2.203 2.876-.4 5.74-.75 8.625-1.062l2.371-.276c15.064-1.661 30.087-.273 43.004 8.338"/><path fill="#AE81C7" d="M409 215c3.813.188 3.813.188 7 1l-2 1-1 3c-1.742 1.79-1.742 1.79-3.875 3.625l-2.117 1.852C405 227 405 227 402 228v2h-2v2c-5.476 5-5.476 5-8 5v2c-1.61 1.48-3.291 2.885-5 4.25l-3.023 2.434a182 182 0 0 1-9.516 6.93c-1.788 1.697-2.082 2.986-2.461 5.386l-2.25-.125c-3.084-.046-3.084-.046-6.75 2.125l-9-9c4.32-4.68 4.32-4.68 7.125-6 1.875 0 1.875 0 3.625 1.313C366 248 366 248 366 250c4.04-.569 6.313-2.66 9.375-5.25l2.926-2.45a1120 1120 0 0 0 4.68-4.007C386.823 235 386.823 235 389 235v-2h2v-2h2v-2a109 109 0 0 1 5.188-4.312c3.028-2.388 5.798-4.674 8.437-7.493z"/><path fill="#A26BC1" d="M351 253c.982 4.543 1.553 8.547 0 13-3.381 3.782-6.762 6.683-12 7l-1 3a73 73 0 0 1-6 4l-2.621 1.59q-3.681 2.22-7.379 4.41l-7-7c3.54-3.88 7.637-6.668 11.938-9.625a374 374 0 0 0 19.62-14.61C349 253 349 253 351 253"/><path fill="#EBDAC2" d="M284 156c3.817 1.555 6.192 4.036 9 7l-1.772.644c-7.072 2.686-13.501 6.136-20.04 9.918l-3.061 1.749c-5.435 3.1-5.435 3.1-10.762 6.376C255 183 255 183 252 183v2l-1.793.988-2.394 1.325-2.493 1.37a84 84 0 0 0-5.132 3.192c-2.188 1.125-2.188 1.125-4.25 1-2.245-1.014-3.991-2.377-5.938-3.875 16.81-9.972 16.81-9.972 25.129-14.441 3.646-1.98 7.258-4.019 10.871-6.059a1177 1177 0 0 1 19-10.5z"/><path fill="#EDDDC5" d="m294 164 7 5c-2.535 1.69-5.046 3.157-7.719 4.61l-2.828 1.538-2.953 1.602-2.86 1.555-5.742 3.12c-8.67 4.707-8.67 4.707-17.308 9.473l-2.652 1.477-2.723 1.523C254 195 254 195 252 195v3a478 478 0 0 1-4.875-.875l-2.742-.492C242 196 242 196 240 194c2.906-1.257 4.796-2 8-2v-2l1.805-.887c6.437-3.188 12.77-6.538 19.07-9.988l2.905-1.585c6.133-3.358 12.195-6.802 18.173-10.43C292 166 292 166 294 166z"/><path fill="#8943BF" d="m297 314 3 1c.914 1.855.914 1.855 1.625 4.188l.727 2.292c5.514 21.426 1.519 43.673-9.352 62.52-3.94 6.638-3.94 6.638-6 9h-2v2l-4 1c.375-1.937.375-1.937 1-4l2-1a467 467 0 0 0 2-6c1.21-2.605 2.548-5.14 3.875-7.687 8.345-16.35 12.928-34.641 7.625-52.875l-.844-2.317c-.767-2.479-.832-4.54-.656-7.121z"/><path fill="#C484E2" d="M174.813 318.125 177 320v2h-4l5 5-1.625-.437c-2.774-.658-5.56-1.115-8.375-1.563v-2c-11.06-.106-21.976-.007-33 1l2-3h2v-3l-2-1c10.25-9.02 27.185-5.558 37.813 1.125"/><path fill="#7931A9" d="m278 284 1 3 2 .938 2 1.062c.625 2.066.625 2.066 1 4-13.91 10.034-13.91 10.034-19.812 9.938-4.727-.805-8.922-2.815-13.188-4.938 5.09-5.66 13.503-11.225 21.188-11.875L276 286z"/><path fill="#923DBF" d="M221.418 360.279c2.35.656 4.602 1.428 6.894 2.26 6.44 1.958 12.895 1.912 19.565 1.852 2.12-.016 4.238 0 6.357.02 6.999.008 13.257-.343 19.848-2.866C276 361 276 361 279 362c-2.276 2.276-3.627 2.638-6.687 3.5l-2.723.773L267 367l-3.625 1.125c-2.654.688-4.925 1.062-7.625 1.313-3.67.236-3.67.236-5.75 2.125L249 373l-2-1a196 196 0 0 0-5.875-.375c-9.21-.652-17.784-2.644-26.125-6.625 1.22-3.659 2.393-5.185 6.418-4.721"/><path fill="#9769B5" d="M70 315c-.297 4.755-2.68 7.536-5.527 11.133-1.235 1.565-2.367 3.209-3.473 4.867l-1.75 2c-7.501 10.002-12.551 22.125-16.25 34-1.885-1.568-2.901-2.466-3.355-4.918C40.623 348.86 49.468 336.43 57 326l1.918-2.668C65.131 315 65.131 315 70 315"/><path fill="#3B1C56" d="M191 427h4c1.8.468 3.591.972 5.375 1.5 6.913 1.818 13.522 1.784 20.625 1.5l-2 2c1.552 2.533 2.348 3.822 5.274 4.622 2.76.383 5.372.498 8.159.492h3.214l3.435-.016 3.543-.005c3.73-.005 7.458-.018 11.188-.03q3.795-.009 7.591-.014 9.298-.017 18.596-.049v1c-4.208.969-8.388 1.322-12.687 1.563l-2.249.126c-20.335 1.046-40.043-.023-60.064-3.689l-3.285-.508c-2.987-.541-5.662-1.55-8.48-2.66-4.01-1.493-8.127-2.645-12.235-3.832 3.555-1.946 5.932-2.17 10-2"/><path fill="#D3B9C2" d="m138 245 5 5c-3.791 3.95-7.813 7.382-12.125 10.75l-1.879 1.496c-2.642 2.074-4.785 3.684-7.996 4.754v2a125 125 0 0 1-6 4l-.375-1.937L114 269l-2-1q2.43-2.258 4.875-4.5l2.742-2.531C122 259 122 259 124 259v-2a105 105 0 0 1 5.875-4.625l1.684-1.273C135.738 248 135.738 248 138 248z"/><path fill="#D5BB95" d="m410.438 117.938 3.083.013q3.74.018 7.479.049l-1 3-16 1v2l-1.804.335c-2.692.506-5.381 1.023-8.071 1.54l-2.84.527-2.715.528-2.507.476c-2.263.471-2.263.471-4.063 2.594-2.429-6.286-2.429-6.286-1-10l1 2 1.941-.621 2.622-.817 2.566-.808c7.1-1.865 14.023-1.878 21.308-1.817"/><path fill="#350B54" d="M266 293a191 191 0 0 1 10 4c-2.74 3.339-4.494 4.854-8.687 6.063-5.195.375-9.786-1.682-14.313-4.063l-2-2c5.22-3.918 8.386-5.938 15-4"/><path fill="#773A9C" d="M287.375 298.875c2.378 1.925 4.483 3.947 6.625 6.125a487 487 0 0 1-5.75 3.563l-3.234 2.003C282 312 282 312 279.78 311.813c-2.384-1.088-4.574-2.403-6.781-3.813.336-2.9.835-3.856 3.074-5.809 7.077-4.411 7.077-4.411 11.301-3.316"/><path fill="#450F72" d="M353 174a91 91 0 0 1 4 4v2c-1.937.563-1.937.563-4 1l-1-1-2 1h-3l1 2h-3l-1-2-2 1 2 2q-3.687.08-7.375.125l-2.117.05c-1.837.018-3.674-.072-5.508-.175l-2-2h6v-2h-3v-2c3.976-1.325 7.909-1.664 12.063-2.125l2.51-.3c.791-.09 1.584-.179 2.4-.27l2.195-.25C351 175 351 175 353 176z"/><path fill="#D8BFB8" d="m294 164 7 5c-3.327 2.218-6.755 4.19-10.25 6.125l-1.95 1.129c-4.434 2.436-7.621 3.162-12.8 2.746v-4q3.933-2.257 7.875-4.5c.746-.43 1.493-.859 2.262-1.3l2.168-1.231 2-1.143C292 166 292 166 294 166z"/><path fill="#5E3B7B" d="m206 279 5 3-2 1v3l2.813-.125C215 286 215 286 218 288v-2c5.021-.78 8.977-1.13 14 0l-2 4 2.813.25c3.187.75 3.187.75 5.062 2.813L239 295c-2.61 0-4.602-.256-7.125-.812l-2.133-.458c-3.143-.837-6.196-1.86-9.276-2.903-4.158-1.395-8.345-2.7-12.529-4.014l-2.623-.827q-3.156-.994-6.314-1.986l1.89-.898c2.148-1.122 3.491-2.321 5.11-4.102"/><path fill="#290648" d="M383 337h5c1.283 2.567.967 4.096.688 6.938l-.239 2.652C388 349 388 349 386 352v4h-2l-2 4h-4c.755-6.418.755-6.418 2-9.375 1.225-3.214 1.473-6.225 1.754-9.637C382 339 382 339 383 337"/><path fill="#3D125E" d="M346.813 232.688 349 233v2l2.313.688c3.234 1.58 4.103 3.145 5.687 6.312l-6 5c-4.733-2.003-8.394-5.394-12-9 4.308-4.923 4.308-4.923 7.813-5.312"/><path fill="#DFA9F2" d="m164 315 .313 1.938L165 319l3 1v1c-4.103.226-8.208.428-12.312.625l-3.538.195-3.388.157-3.127.158C143 322 143 322 140 320c8.237-5.406 14.256-6.487 24-5"/><path fill="#73508E" d="M121 138c2 2 2 2 2 5h-2l-1 7h2v2h-3c-1.784 18.969-1.784 18.969-2 38h-3c-2.254-17.236.158-35.964 7-52"/><path fill="#713D97" d="m167 84 2 1v3l-4-1-1 2-2 2-1 3-2.562 1.5L156 97v3h4c-1.245 3.736-2.634 4.188-6 6v-3l-4-2v2h-2v2l-7 2 2-4h2v-2c1.61-1.48 3.291-2.885 5-4.25l3.031-2.426c4.57-3.577 9.14-7.104 13.969-10.324"/><path fill="#472762" d="m124 313 2 1-2 3h2l1-2v6h-2v-2h-2l1 4-6-1 1 3c-.453 2.664-.453 2.664-1.25 5.625l-.766 2.977L116 336l-3 1-4-4 5-10h2l.625-1.625c1.955-3.377 4.557-5.68 7.375-8.375"/><path fill="#381054" d="m200 328 1 6 4 1c-.125 1.875-.125 1.875-1 4l-6 2-9-9c5.842-5.842 5.842-5.842 11-4"/><path fill="#2D0A45" d="m118 359 3 12c-5 2-5 2-7.203 1.898C112 372 112 372 110.953 370.04l-.703-2.414-.734-2.398C109 363 109 363 109 360c3.153-.7 5.727-1 9-1"/><path fill="#351052" d="M125 376c1.688 2.313 1.688 2.313 3 5 1.582 1.751 1.582 1.751 3 3-3.539 2.36-5.767 2.851-10 3-3.225-2.122-3.881-3.486-4.75-7.25L116 377c3.327-1.109 5.519-1.435 9-1"/><path fill="#340859" d="M367 257c2.688-.25 2.688-.25 5 0l2 4-2 1 3 2v4l1 3-4 4-8-14z"/><path fill="#D3B8C4" d="M284 156c3.817 1.555 6.192 4.036 9 7l-2.047.805-2.703 1.07-2.672 1.055c-2.534.999-2.534.999-4.656 2.203C279 169 279 169 275 169l-2-4 12-7z"/><path fill="#2D0B4B" d="m325 419 1.813.563c2.351.658 2.351.658 5.187-.563-1 3-1 3-2.67 4.06l-2.154.948-2.37 1.05c-.822.353-1.645.704-2.493 1.067l-2.436 1.09c-4.287 1.872-8.18 3.284-12.877 3.785l2-1v-3a263 263 0 0 1 5-4l1-3h3v2l4-1v2l2-1z"/><path fill="#5A3C72" d="M127 394c5.875 1.875 5.875 1.875 7 3h3l3 1v6l4-1c4 4.625 4 4.625 4 8 1.438 1.688 1.438 1.688 3 3-4.475-1.453-7.633-3.952-11.125-7-2.884-2.48-5.702-4.885-8.875-7v-2l-3-1z"/><path fill="#3A0D5F" d="M360 245c1.875.125 1.875.125 4 1 2.142 2.907 3 4.355 3 8-3 2.188-3 2.188-6 4l-7-7z"/><path fill="#4D2C68" d="M281 341c2.097 2.36 2.97 3.546 3.188 6.75L284 350c-5.75 3-5.75 3-8 3v-2c-5.584-1.362-9.868-.566-15 2l-3-2q3.874-1.22 7.75-2.437c.73-.23 1.46-.46 2.21-.698l2.15-.674 1.967-.618A117 117 0 0 1 278 345v-2z"/><path fill="#C7A672" d="m422 186-2 4h-2l-.262 2.273c-.884 3.267-1.954 4.242-4.55 6.352l-2.083 1.727L409 202l-2.09 1.637c-2.192 1.564-4.385 2.451-6.91 3.363v-3l1.875-.75c2.255-1.062 2.255-1.062 3.063-3.187C406 198 406 198 408.313 196.75c3.336-2.173 4.596-4.563 6.476-8.008 1.942-2.794 3.955-2.742 7.211-2.742"/><path fill="#BE9968" d="M413 143h2c1.426 2.852 1.132 5.325 1.125 8.5l.008 3.531C416 158 416 158 415 160h-2l-2 5-3-1c.313-3.375.313-3.375 1-7l3-2c.327-2.634.327-2.634.125-5.562A152 152 0 0 1 412 144z"/><path fill="#330C53" d="M213.25 340.125c2.156 1.078 3.385 1.864 4.75 3.875-.312 2.688-.312 2.688-1 5-2.997.95-5.069 1.465-7.957.023-1.81-1.26-3.485-2.46-5.043-4.023v-2c6.319-3.038 6.319-3.038 9.25-2.875"/><path fill="#75598A" d="M227 437c1.733.088 3.47.118 5.206.114h3.215l3.466-.016 3.552-.005c3.75-.005 7.499-.018 11.249-.03q3.81-.009 7.619-.014 9.346-.017 18.693-.049v1c-4.208.969-8.388 1.322-12.687 1.563l-2.249.126c-11.468.59-22.912.518-34.377-.127l-2.119-.118c-3.598-.23-7.053-.635-10.568-1.444v-1c5.625-1.125 5.625-1.125 9 0"/><path fill="#CE9DDF" d="M338 238c5.548 2.017 8.5 5.469 12 10l-4 4c-2-1-2-1-2.687-2.75-1.981-3.395-5.066-5.132-8.313-7.25l1-3z"/><path fill="#370D5A" d="M288 306c-.98 2.452-1.687 3.78-3.875 5.313-2.475.8-3.708.55-6.125-.313l-1-4h-2v-2h3v-2c4.304-1.987 6.513.385 10 3"/><path fill="#712BA1" d="M288 65c6.166-.402 11.177 1.032 17 3l-3 2v-2l-7 2v-2h-2l-1-1 1 3h-5v2l2 1c-3.695.95-6.305.95-10 0v-1l6-1-6-1v-3h7z"/><path fill="#8949B3" d="M134 384v4c-1.75 1.75-1.75 1.75-4 3h-4l1 3h-2v-3l-3.312.125C118 391 118 391 115 389l2.438-.375L120 388l1-2c2.434-.633 2.434-.633 5.438-1.125l2.996-.508C132 384 132 384 134 384"/><path fill="#A98ABD" d="M353 179v2l2 1-6 1v2c-3.333.03-6.667.047-10 .063l-2.832.025c-5.49.02-10.737-.275-16.168-1.088l-1-3 5 1v-2l4 1-1 2h15l-2-2 5-1v3l2-3c2.111-.726 3.77-1 6-1"/><path fill="#8F63AC" d="M241 62q5.838-.037 11.676-.055 2.937-.012 5.873-.033C280.71 61.856 280.71 61.856 287 65l-12 1 2 3h-4v-2l-2-1 1-1c-6.662-.953-13.278-1.306-20-1.562l-3.215-.131Q244.893 63.148 241 63z"/><path fill="#634679" d="M378 370h3c-1.627 4.53-3.916 8.51-6.375 12.625l-1.172 2.023c-2.098 3.521-3.864 6.172-7.453 8.352l-1-3 4-1v-5h2c1.47-4.303 2.774-8.623 4-13l3 1z"/><path fill="#B58C51" d="m75 357 2.445.496c4.183.593 8.214.613 12.43.567l2.375-.014q2.875-.02 5.75-.049l-2 4q-4.094-.172-8.187-.375c-.77-.03-1.538-.062-2.33-.094-4.222-.217-7.624-.628-11.483-2.531z"/><path fill="#8938BB" d="M199.563 347.625A45 45 0 0 1 206 352l-1 3c-2.562 1.188-2.562 1.188-5 2l-1-4-1.812.625C195 354 195 354 192 352v-2c4.042-3.234 4.042-3.234 7.563-2.375"/><path fill="#3F1462" d="m156 250 2 2h-2c-.334 2.374-.334 2.374 0 5 1.883 1.725 1.883 1.725 4 3l1 2c2.025.652 2.025.652 4 1l-1 2v2c-6.127-2.276-10.103-4.66-14-10l1.5-1.312c1.832-1.685 1.832-1.685 1.5-4.688z"/><path fill="#582682" d="m375 151 2 2h-2l1 3 2-4 3 1c-.483 5.155-3.186 8.816-6 13l-2-1 1-5h-2c.75-6.75.75-6.75 3-9"/><path fill="#D3B884" d="m376 201 2 1c-6.025 11.045-6.025 11.045-11.191 12.703L365 215v-2l-2-1q2.685-2.473 5.375-4.937l1.54-1.42c3.858-3.53 3.858-3.53 6.085-4.643"/><path fill="#754995" d="m220 160 1 2-.937 2.125c-2.182 5.904-1.35 11.159.937 16.875h-4c-1.056-5.148-2.444-12.111 0-17l-2-1v3l-3-1v-2c2.918-1.945 4.625-2.453 8-3"/><path fill="#5C3B76" d="m124 313 2 1-2 3h2l1-2v6h-2v-2h-2l1 4-6-1 1 3-4-1-1 2v-3h2l.625-1.625c1.955-3.377 4.557-5.68 7.375-8.375"/><path fill="#BD95CF" d="m384 237 2 1-5 5 2 3-8 7c-1-4-1-4-1-7 2.188-2.262 2.188-2.262 5-4.687l2.813-2.45z"/><path fill="#472464" d="M373 258c3.37 3.04 5.304 6.069 7.313 10.125l1.613 3.195L383 274l-1 2-2-1-1 4-3-5h3l-1.5-3.25c-1.387-3.004-1.5-4.21-1.5-7.75l-5-1z"/><path fill="#62417C" d="M286 323h2l.148 2.082.227 2.73c.07.894.14 1.787.21 2.708.281 2.724.281 2.724 2.415 5.48-.375 2.188-.375 2.188-1 4h-2l-1 4c-2-1-2-1-3-4l-2 1c2-4 2-4 3.063-5.812 1.128-2.635 1.137-4.585 1.062-7.438l-.055-2.703z"/><path fill="#9A7CAC" d="M388 291c4.798 8.739 4.314 19.248 4.25 28.938l.023 3.65-.007 3.502-.007 3.152c-.259 2.756-.842 4.408-2.259 6.758.01-.893.02-1.786.032-2.706q.05-4.974.078-9.947.015-2.151.04-4.303c.025-2.063.036-4.126.045-6.189l.032-3.76c.016-3.264.016-3.264-2.227-6.095-.195-3.137-.195-3.137-.125-6.687l.055-3.575z"/><path fill="#78429E" d="M320 73c3.95.628 7.199 1.865 10.813 3.563l2.957 1.378L336 79l-2 2c-2.156 0-3.924-.447-6-1v-2l-2.812.625C322 79 322 79 319 77z"/><path fill="#542F71" d="m175 264-2 2h-3v2c2.332 1.206 4.496 2.165 7 3v2l4 1v2c-5.967-1.57-10.83-4.75-16-8l1-3c3.196-1.065 5.657-1.074 9-1"/><path fill="#552E74" d="M125 225h7v2l3 1-1 2c-2.062.625-2.062.625-4 1l3 1-1 5c-2.955-2.751-5.152-5.397-7-9z"/><path fill="#693F88" d="M302 212c5.691 1.097 10.746 2.54 16 5l-3 2v-2l-2 1 2 3-10-2 2-3-6-2z"/><path fill="#7A41A4" d="m94 394 1 3c-3.068.897-5.793 1.117-8.984 1.098l-2.832-.01-2.934-.026-2.98-.013Q73.634 398.03 70 398v-1q4.592-.758 9.188-1.5l2.619-.434c4.098-.66 8.025-1.273 12.193-1.066"/><path fill="#552B77" d="m119 201 2 1v2h3v5h-2l-1 7c-3.057-3.057-3.863-6.498-4.25-10.75C117 203 117 203 119 201"/><path fill="#764C95" d="M231 149h11v1l-2.562.664c-7.26 2.03-12.826 4.25-18.438 9.336l-1-3h3v-3h2v-3l3-1 2 1z"/><path fill="#54356D" d="M387 349c1.422 3.793.544 6.249-.75 10-.345 1.031-.69 2.063-1.047 3.125-1.125 2.69-2.342 4.65-4.203 6.875l-2-5 3-1-2-4 3-1 1-2h2l-1-6zm-9 11 2 1Z"/><path fill="#79489A" d="M364 98q1.696 1.364 3.375 2.75l1.898 1.547c1.81 1.785 2.728 3.382 3.727 5.703l-2.187-1.062c-3.158-1.053-4.646-.708-7.813.062l-2-1zM167 84l2 1v3l-4-1-1 2-2 2-1 3c-2.937 1.25-2.937 1.25-6 2l-2-1a876 876 0 0 1 4.188-3.812l2.355-2.145c2.398-1.994 4.674-3.635 7.457-5.043"/><path fill="#512E6E" d="M255 296h3v2l4-1 1 3h2l1-2 1 3c-1.672 1.117-1.672 1.117-4 2-2.578-.68-2.578-.68-5.25-1.875l-2.703-1.18L253 299z"/><path fill="#5F3D76" d="M328 222c4.229 1.309 8.202 2.703 12 5 .875 2.188.875 2.188 1 4l-4 2v-4h-4c-2.06-1.772-3.375-3.789-5-6z"/><path fill="#5C3E73" d="M191 427c2.875 2.5 2.875 2.5 5 5-3.855 1.285-5.403.405-9.187-.937l-3.293-1.153L181 429c3.576-1.915 5.894-2.587 10-2"/><path fill="#8D67A7" d="m131 119 1 4h-2l-1 6-3 1 .125 2.313C126 135 126 135 124 138h-2c1.943-7.056 5.043-12.865 9-19"/><path fill="#BE9ACE" d="M72 307v4l4-1c-1.443 3.366-3.333 5.51-6 8v-3l-5 2v-2h2l.813-2.312c1.131-2.562 2.1-3.885 4.187-5.688"/><path fill="#51316B" d="m387 332 3 1q.079 2.874.125 5.75l.07 3.234C390 345 390 345 388 349v-11h-3z"/><path fill="#AB70CD" d="M459 132c1.488 1.145 1.488 1.145 3 3 .293 2.7.293 2.7.188 5.688l-.083 3.011L462 146l-3-1a380 380 0 0 1-.562-4.25l-.317-2.39c-.121-2.365.183-4.111.879-6.36"/><path fill="#734994" d="m270 150 17 2 1 3-7 1v-2l-11-3z"/><path fill="#C09F87" d="m380 120 1 3 10-1v2l-5.273 2.93c-1.888 1.079-1.888 1.079-3.727 3.07-1.316-3.62-2-6.096-2-10"/><path fill="#6F4491" d="M353 179v2l2 1-6 1v2l-9-3 4-2 1 3 2-3c2.111-.726 3.77-1 6-1"/><path fill="#9264AD" d="M306 69c4.97.514 9.29 1.234 14 3v1c-5.376.849-9.654 1.002-15 0z"/><path fill="#8954AD" d="M39 371c2.243 2.884 4.363 5.726 6 9-.312 2.313-.312 2.313-1 4-1.5-1.375-1.5-1.375-3-3v-2h-2z"/><path fill="#705188" d="M153 259c3.73.509 6.724 1.128 10 3l2 1-1 2v2c-3.59-1.334-6.846-2.81-10-5z"/><path fill="#8753AB" d="m111 390-1 5h-8c.75-1.937.75-1.937 2-4 2.495-.966 4.297-1 7-1"/><path fill="#4D246F" d="M291.313 311.313 293 312l-1 4-4-1-2 5-3-3c1-3 1-3 3.313-4.75 2.687-1.25 2.687-1.25 5-.937"/><path fill="#BA945E" d="M402.188 134.875 406 135v3c-4.293 1.263-6.878.63-11-1 3.089-2.06 3.71-2.239 7.188-2.125"/><path fill="#775292" d="m362 173 5 1c-5.538 5.846-5.538 5.846-9 7l-3-1h2l-1-3 6-1z"/><path fill="#DAC1AF" d="M94 299c0 3.204-.743 5.094-2 8l3-1-2 4-2-2c-2.603.32-2.603.32-5 1 1.65-4.292 4.738-6.88 8-10"/><path fill="#E1CCBB" d="m429 170 1 4h3c-1.25 3.653-1.671 4.78-5 7l1-5-6 3c1.527-3.436 3.6-6.12 6-9"/><path fill="#9061AE" d="m232.75 62.875 3.547.055L239 63v2c-6.75 1.125-6.75 1.125-9 0a62 62 0 0 0-4.125-.062L222 65c3.595-2.26 6.566-2.209 10.75-2.125"/><path fill="#5A3E71" d="m325 419 1.813.563c2.351.658 2.351.658 5.187-.563-1 3-1 3-2.777 4.203l-2.16 1.047-2.153 1.078L323 426l-2-1 1.438-1.312c1.799-1.711 1.799-1.711 2.562-4.688"/><path fill="#8D59AF" d="M70 315c-.187 2.313-.187 2.313-1 5-2.562 1.813-2.562 1.813-5 3l-2-2c4.615-6 4.615-6 8-6"/><path fill="#DDC6B7" d="M395 177h2l1 3 4-1c-1.37 3.161-1.99 3.993-5 6l-1-3-5 2a56.5 56.5 0 0 1 4-7"/><path fill="#581987" d="M345 89c2.84 0 5.237.403 8 1-5.143 4.429-5.143 4.429-9 5l-1-2h2z"/><path fill="#D1B6D2" d="m56 377 12 1v1l-7 1 1 4-6-1 2-5z"/><path fill="#804EA1" d="M215 342c3.588 1.333 6.836 2.83 10 5v2l-5 2-1-3a349 349 0 0 0-4-5z"/><path fill="#5F4276" d="m317 426 1 2c-1.266.532-2.538 1.05-3.812 1.563l-2.145.878C310 431 310 431 307 430h2v-3c2.709-1.354 5.01-1.065 8-1"/><path fill="#B18DA9" d="M92 378h14c-2.871 2.871-6.11 2.83-10 3-2.5-.437-2.5-.437-4-1z"/><path fill="#51336B" d="M178 423v3l3 1c-2 1-2 1-4.383.223l-2.742-1.16-2.758-1.153L169 424v-1c3.378-.845 5.675-1.108 9 0"/><path fill="#B18BBC" d="m58 378 1 4-8-1v-3c2.667-1.333 4.167-.671 7 0"/><path fill="#9867B5" d="m76 303 2 1c-2.462 6.646-2.462 6.646-5.187 8.438L71 313c0-3.731 1.18-5.78 3-9z"/><path fill="#965DBB" d="M365 254c1.945.242 1.945.242 4.125.875l2.195.617L373 256l-1 2-2.25-.125c-2.838.129-4.338.696-6.75 2.125 0-4 0-4 2-6"/><path fill="#805D9A" d="M306 174a295 295 0 0 1 3.938.875l2.214.492C314 176 314 176 315 178c2.025.652 2.025.652 4 1v2c-5.468-.4-8.96-2.461-13-6z"/><path fill="#986CB1" d="M221 66c-2.858 2.858-5.147 2.408-9.125 2.625l-3.883.227L205 69c4.315-4.315 10.38-4.405 16-3"/><path fill="#4A2668" d="M284 337h5l-1 6h-3l-1-3-2 1z"/><path fill="#CFB17F" d="m123 273 4 1-5 6-3-2z"/><path fill="#56386F" d="M217 433c3 1 3 1 5 3-2.464 1.232-4.19 1.167-6.937 1.188l-2.653.042C210 437 210 437 207 435l3.313.125c3.776.196 3.776.196 6.687-2.125"/><path fill="#76588C" d="m136 306 2 1-1.937.813c-2.394 1.074-2.394 1.074-3.063 4.187l-7 1c2.982-3.326 5.864-5.292 10-7"/><path fill="#654183" d="m265 202 3.813.375 2.144.21C273 203 273 203 276 205c-3.058.544-5.888 1-9 1v-2h-2z"/><path fill="#8E6BA7" d="M221 181q1.757 1.176 3.5 2.375l1.969 1.336L228 186v2l2 1c-1 1-1 1-3.562 1.063L224 190l-.375-2.25c-.58-2.551-1.362-4.477-2.625-6.75"/><path fill="#B78F56" d="m77 325 1 3c-4.75 4.875-4.75 4.875-7 6l2-7h4z"/><path fill="#836596" d="M383 276c2.176 2.176 2.719 3.56 3.688 6.438l.824 2.37C388 287 388 287 387 290c-1.257-2.906-2-4.796-2-8h-4v-2h2z"/><path fill="#583278" d="m201 275-1 2.313c-1.174 2.678-1.174 2.678-1 5.687-3.375-.547-5.082-1.055-8-3h5l.375-1.937L197 276c2-1 2-1 4-1"/><path fill="#593478" d="M318 218c3.821.53 6.062 1.497 9 4-1 1-1 1-3.437 1.125C321 223 321 223 319 222c-.625-2.062-.625-2.062-1-4"/><path fill="#CAAB78" d="m428 175 2 1-2 5h-5c1.37-3.161 1.99-3.993 5-6"/><path fill="#754E94" d="m378 152 3 1c-.53 3.821-1.497 6.062-4 9-.125-7.75-.125-7.75 1-10"/><path fill="#A177B7" d="M291 65c4.764.715 9.342 1.795 14 3l-3 2v-2l-7 2v-2h-2v-2z"/><path fill="#705486" d="M151 414h4v2l3-1c2.688.938 2.688.938 5 2v3a320 320 0 0 1-4.312-1.312l-2.426-.739c-2.362-.99-3.6-2.03-5.262-3.949"/><path fill="#614478" d="M339 413h4v2l-9 5v-4l5-2z"/><path fill="#4D2F67" d="M378 370h3c-1.074 2.915-1.778 4.778-4 7l-2-1v-5l3 1z"/><path fill="#694B7F" d="M387 349c1.124 3.304.896 5.05-.437 8.25l-.872 2.14L385 361h-2l1-5h2l-1-6z"/><path fill="#5F4175" d="M109 335h1c.185 10.558.185 10.558-1 15h-1a357 357 0 0 1-.625-5.25l-.352-2.953c-.024-2.931.446-4.342 1.977-6.797"/><path fill="#B486C9" d="m153.25 311.938 2.703.027L158 312v1l-1.828.402-2.422.536-2.39.527c-2.129.483-4.245.997-6.36 1.535l-1-3c3.155-.936 5.966-1.106 9.25-1.062"/><path fill="#682A91" d="m219 354 9 3v1l-9 2c-1-2-1-2 0-6"/><path fill="#B48A4D" d="M104 357c6.75-.125 6.75-.125 9 1v2h-9z"/><path fill="#C19FCE" d="M64 317v5h2c-1.75 4.875-1.75 4.875-4 6v-4l-2-2z"/><path fill="#6E5085" d="M373 258c3.483 3.019 4.792 5.57 6 10l-3-1v-4l-5-1z"/><path fill="#633F74" d="M346.625 232.875 349 233v2l3 1-3 2-3-1-1-2h-3c2-2 2-2 4.625-2.125"/><path fill="#815C9A" d="M373 166c0 3 0 3-1.312 4.387L367 174v-5h3v-2z"/><path fill="#9B65BC" d="M412 217c-1.75 4.875-1.75 4.875-4 6-2.125-.937-2.125-.937-4-2 5.75-4 5.75-4 8-4"/><path fill="#8E61A8" d="M344 84c3.375 1.186 5.647 2.276 8 5l-6 2z"/><path fill="#6B4F80" d="M350 405h2c-.398 2.886-.79 3.822-3.062 5.75L347 412l-2-1v-3h5z"/><path fill="#6D3B91" d="M124 386c2.504 1.252 4.064 3 6 5h-4l1 3h-2l-1-6-3-1z"/><path fill="#D0B1D6" d="m259 324 2 1-1 2 4 1c-2.375 1.563-2.375 1.563-5 3l-2-1 1-3-2-1z"/><path fill="#62427D" d="m182 275 7 1 1 4-9-3z"/><path fill="#23043F" d="M207 433c7.429-.286 7.429-.286 11 2-6.4 1.23-6.4 1.23-9.437.063L207 434z"/><path fill="#D2B69C" d="M78 317c2.468 1.152 4.048 2.048 6 4l-3 2-1-2-4 1z"/><path fill="#7A5C8F" d="m180 311 5 2v2h2l-1 2h-3v-2l-3-1z"/><path fill="#8358A2" d="m136 112 1 3h-2v2h3l-1 3-5-1 2-5h2z"/><path fill="#816596" d="M231 438v1c-4.516.077-8.59.102-13-1v-1c4.944-1.206 8.209-.63 13 1"/><path fill="#240440" d="M282 433h7v2c-2.709 1.354-5.01 1.065-8 1z"/><path fill="#7E4787" d="M127 357c-2 2-2 2-4.383 2.195l-2.742-.07-2.758-.055L115 359v-1c8.036-2.277 8.036-2.277 12-1"/><path fill="#C4A270" d="M408 166v6h-3v-2l-2-1c3.875-3 3.875-3 5-3"/><path fill="#9A73B2" d="m167 84 2 1v3l-4-1-1 2c-2.062.625-2.062.625-4 1 2.257-2.335 4.28-4.187 7-6"/><path fill="#B18EBF" d="M203 70c-2.495 2.495-3.673 2.36-7.125 2.625l-2.758.227L191 73c4.021-2.68 7.26-4.58 12-3"/><path fill="#44106C" d="M117 359h1l3 12c-4-4-4-4-4.39-6.14z"/><path fill="#773BA5" d="m41 358 2 1v8c-1.562-1.125-1.562-1.125-3-3 .313-3.187.313-3.187 1-6"/><path fill="#DBC0DE" d="M47 323v3l1 2v4l-1-2h-3c1.875-5.875 1.875-5.875 3-7"/><path fill="#BC9662" d="m88 307 4 1v2l-6 1z"/><path fill="#2C0A4A" d="m167 306 7 2c-2.354 1.43-3.48 2.087-6.25 1.625L166 309z"/><path fill="#654578" d="M360 245c1.875.25 1.875.25 4 1 1.25 2.063 1.25 2.063 2 4l-7-2z"/><path fill="#CAAC78" d="m399 207 1 4-5 1c.313-1.937.313-1.937 1-4z"/><path fill="#C5A1D3" d="m426 198 1 3 4-2c-1.75 3.875-1.75 3.875-4 5v-2l-3-1v-2z"/><path fill="#7D559B" d="m324 180 4 1-1 2c-2.322.407-4.657.744-7 1l-1-3 5 1z"/><path fill="#E4D0C8" d="M403 119c-3.212 1.906-5.539 2.223-9.25 2.125l-2.703-.055L389 121c4.322-2.881 9.012-3.796 14-2"/><path fill="#CEB5C0" d="m109 360 1 6-2-2v-3l-5 2-1-2c2.463-1.231 4.28-1.072 7-1"/><path fill="#BD98CC" d="m51 335 5 2-1 3-3-1-3 1z"/><path fill="#72528B" d="M173 307a101 101 0 0 1 6 2l1 2h-4l-1 2-2-1z"/><path fill="#9B62BE" d="M448 171h1v5h-3l-1 3-2-1a698 698 0 0 1 2.438-3.5l1.37-1.969z"/></svg>